<svg width="166" height="145" viewBox="0 0 166 145" fill="none" xmlns="http://www.w3.org/2000/svg">
<path d="M32.0883 133.956C22.019 123.886 15.1616 111.057 12.3835 97.0907C9.60536 83.1241 11.0312 68.6473 16.4807 55.491C21.9302 42.3347 31.1586 31.0898 42.999 23.1784C54.8393 15.2669 68.7598 11.0442 83 11.0442C97.2403 11.0442 111.161 15.2669 123.001 23.1784C134.841 31.0898 144.07 42.3347 149.519 55.491C154.969 68.6473 156.395 83.1241 153.617 97.0907C150.838 111.057 143.981 123.886 133.912 133.956" stroke="#FAFAFA" stroke-width="21" stroke-linecap="round"/>
<path d="M32.0883 133.956C22.019 123.886 15.1616 111.057 12.3835 97.0907C9.60536 83.1241 11.0312 68.6473 16.4807 55.491C21.9302 42.3347 31.1586 31.0898 42.999 23.1784C54.8393 15.2669 68.7598 11.0442 83 11.0442C97.2403 11.0442 111.161 15.2669 123.001 23.1784C134.841 31.0898 144.07 42.3347 149.519 55.491C154.969 68.6473 156.395 83.1241 153.617 97.0907C150.838 111.057 143.981 123.886 133.912 133.956" stroke="#F0F0F0" stroke-width="15" stroke-linecap="round"/>
<path d="M32.0883 133.956C22.019 123.886 15.1616 111.057 12.3835 97.0907C9.60536 83.1241 11.0312 68.6473 16.4807 55.491C21.9302 42.3347 31.1586 31.0898 42.999 23.1784C54.8393 15.2669 68.7598 11.0442 83 11.0442C97.2403 11.0442 111.161 15.2669 123.001 23.1784C134.841 31.0898 144.07 42.3347 149.519 55.491" stroke="#F2665D" stroke-width="9" stroke-linecap="round"/>
<circle cx="150" cy="56.5442" r="3.5" fill="#F2665D" stroke="white" stroke-width="2"/>
</svg>
