<svg width="57" height="56" viewBox="0 0 57 56" fill="none" xmlns="http://www.w3.org/2000/svg">
<path d="M40.166 9.33325H42.4993C43.737 9.33325 44.924 9.82492 45.7992 10.7001C46.6743 11.5753 47.166 12.7622 47.166 13.9999V16.3333" stroke="#F2665D" stroke-width="1.5" stroke-linecap="round" stroke-linejoin="round"/>
<path d="M47.166 39.6667V42.0001C47.166 43.2378 46.6743 44.4247 45.7992 45.2999C44.924 46.1751 43.737 46.6667 42.4993 46.6667H40.166" stroke="#F2665D" stroke-width="1.5" stroke-linecap="round" stroke-linejoin="round"/>
<path d="M16.834 46.6667H14.5007C13.263 46.6667 12.076 46.1751 11.2008 45.2999C10.3256 44.4247 9.83398 43.2378 9.83398 42.0001V39.6667" stroke="#F2665D" stroke-width="1.5" stroke-linecap="round" stroke-linejoin="round"/>
<path d="M9.83398 16.3333V13.9999C9.83398 12.7622 10.3256 11.5753 11.2008 10.7001C12.076 9.82492 13.263 9.33325 14.5007 9.33325H16.834" stroke="#F2665D" stroke-width="1.5" stroke-linecap="round" stroke-linejoin="round"/>
<path d="M21.5 28C21.5 29.8565 22.2375 31.637 23.5503 32.9497C24.863 34.2625 26.6435 35 28.5 35C30.3565 35 32.137 34.2625 33.4497 32.9497C34.7625 31.637 35.5 29.8565 35.5 28C35.5 26.1435 34.7625 24.363 33.4497 23.0503C32.137 21.7375 30.3565 21 28.5 21C26.6435 21 24.863 21.7375 23.5503 23.0503C22.2375 24.363 21.5 26.1435 21.5 28Z" stroke="#F2665D" stroke-width="1.5" stroke-linecap="round" stroke-linejoin="round"/>
<path d="M28.5 42V46.6667" stroke="#F2665D" stroke-width="1.5" stroke-linecap="round" stroke-linejoin="round"/>
<path d="M9.83398 28H14.5007" stroke="#F2665D" stroke-width="1.5" stroke-linecap="round" stroke-linejoin="round"/>
<path d="M28.5 9.33325V13.9999" stroke="#F2665D" stroke-width="1.5" stroke-linecap="round" stroke-linejoin="round"/>
<path d="M47.1667 28H42.5" stroke="#F2665D" stroke-width="1.5" stroke-linecap="round" stroke-linejoin="round"/>
</svg>
