<svg width="24" height="24" viewBox="0 0 24 24" fill="none" xmlns="http://www.w3.org/2000/svg">
<path d="M19 12.6465V12.4394V11H18.5V12.7499C18.5 12.7499 18.5 12.75 18.5 12.75C18.5 12.8163 18.5264 12.8798 18.5732 12.9266L18.5733 12.9267L20.6036 14.957L20.75 15.1035V15.3106V16.5V17H20.25H3.75H3.25V16.5V15.3106V15.1035L3.39644 14.957L5.42669 12.9267L5.42675 12.9266C5.47361 12.8798 5.49996 12.8163 5.5 12.75C5.5 12.75 5.5 12.7499 5.5 12.7499V9.75038V9.75H6C5.99807 8.69616 6.27424 7.66047 6.80063 6.74752C7.32702 5.83456 8.08498 5.07666 8.99799 4.55035C9.91099 4.02404 10.9467 3.74796 12.0005 3.74998C12.8659 3.75164 13.7184 3.94079 14.5 4.30176L19 12.6465ZM19 12.6465L19.1464 12.793L21.1767 14.8233L21.1768 14.8234C21.2236 14.8702 21.25 14.9337 21.25 15C21.25 15 21.25 15.0001 21.25 15.0001V17.25C21.25 17.3163 21.2237 17.3799 21.1768 17.4268C21.1299 17.4737 21.0663 17.5 21 17.5H15.75H15.25V18V18.75C15.25 19.612 14.9076 20.4386 14.2981 21.0481C13.6886 21.6576 12.862 22 12 22C11.138 22 10.3114 21.6576 9.7019 21.0481C9.09241 20.4386 8.75 19.612 8.75 18.75V18V17.5H8.25H3C2.9337 17.5 2.87011 17.4737 2.82322 17.4268C2.77634 17.3799 2.75 17.3163 2.75 17.25V15.0001C2.75 15.0001 2.75 15 2.75 15C2.75004 14.9337 2.77639 14.8702 2.82325 14.8234L2.82331 14.8233L4.85356 12.793L5 12.6465V12.4394V9.75029C5.00234 8.01561 5.64774 6.3434 6.81145 5.05697C7.97523 3.77044 9.57472 2.96113 11.3006 2.78553L11.75 2.73981V2.2881V1.25M19 12.6465L11.75 1.25M11.75 1.25H12.25V2.2881V2.7396L12.6992 2.78551C13.3166 2.84862 13.9223 2.99444 14.5 3.21867V3.75547C13.7113 3.42451 12.8623 3.25164 12.0015 3.24998L11.75 1.25ZM9.75 17.5H9.25V18V18.75C9.25 19.4793 9.53973 20.1788 10.0555 20.6945C10.5712 21.2103 11.2707 21.5 12 21.5C12.7293 21.5 13.4288 21.2103 13.9445 20.6945C14.4603 20.1788 14.75 19.4793 14.75 18.75V18V17.5H14.25H9.75ZM22 6C22 7.38071 20.8807 8.5 19.5 8.5C18.1193 8.5 17 7.38071 17 6C17 4.61929 18.1193 3.5 19.5 3.5C20.8807 3.5 22 4.61929 22 6Z" stroke="#303030"/>
<path d="M22 6C22 7.38071 20.8807 8.5 19.5 8.5C18.1193 8.5 17 7.38071 17 6C17 4.61929 18.1193 3.5 19.5 3.5C20.8807 3.5 22 4.61929 22 6Z" fill="#F2665D" stroke="#F2665D"/>
</svg>
