<svg width="20" height="19" viewBox="0 0 20 19" fill="none" xmlns="http://www.w3.org/2000/svg">
<path d="M10 4.02268C13.4455 4.02268 16.5182 5.95905 18.0182 9.02268C17.4818 10.1318 16.7273 11.0863 15.8273 11.859L17.1091 13.1409C18.3727 12.0227 19.3727 10.6227 20 9.02268C18.4273 5.03177 14.5455 2.2045 10 2.2045C8.84545 2.2045 7.73636 2.38632 6.69091 2.72268L8.19091 4.22268C8.78182 4.1045 9.38182 4.02268 10 4.02268ZM9.02727 5.05905L10.9091 6.94086C11.4273 7.16814 11.8455 7.58632 12.0727 8.1045L13.9545 9.98632C14.0273 9.67723 14.0818 9.34996 14.0818 9.01359C14.0909 6.75905 12.2545 4.93177 10 4.93177C9.66364 4.93177 9.34546 4.97723 9.02727 5.05905ZM0.918182 2.08632L3.35455 4.52268C1.87273 5.68632 0.7 7.23177 0 9.02268C1.57273 13.0136 5.45455 15.8409 10 15.8409C11.3818 15.8409 12.7091 15.5772 13.9273 15.0954L17.0364 18.2045L18.3182 16.9227L2.2 0.79541L0.918182 2.08632ZM7.73636 8.9045L10.1091 11.2772C10.0727 11.2863 10.0364 11.2954 10 11.2954C8.74545 11.2954 7.72727 10.2772 7.72727 9.02268C7.72727 8.97723 7.73636 8.94996 7.73636 8.9045ZM4.64545 5.81359L6.23636 7.4045C6.02727 7.9045 5.90909 8.44996 5.90909 9.02268C5.90909 11.2772 7.74545 13.1136 10 13.1136C10.5727 13.1136 11.1182 12.9954 11.6091 12.7863L12.5 13.6772C11.7 13.8954 10.8636 14.0227 10 14.0227C6.55455 14.0227 3.48182 12.0863 1.98182 9.02268C2.61818 7.72268 3.54545 6.64995 4.64545 5.81359Z" fill="#C8C8C8"/>
</svg>
