<svg width="36"  height="36" viewBox="0 0 36 36" fill="none" xmlns="http://www.w3.org/2000/svg">
<g clip-path="url(#clip0_1414_2913)">
<circle cx="18" cy="18" r="16" fill="#52BB77"/>
<path d="M15.3965 21.2629L15.7501 21.6163L16.1036 21.2628L24.2831 13.0821L25.1679 13.9669L15.7501 23.3836L10.8321 18.4647L11.7147 17.5821L15.3965 21.2629ZM9.52756 5.32009C12.0354 3.6444 14.9838 2.75 18 2.75C22.0446 2.75 25.9235 4.35669 28.7834 7.21662C31.6433 10.0766 33.25 13.9554 33.25 18C33.25 21.0162 32.3556 23.9646 30.6799 26.4724C29.0042 28.9803 26.6225 30.9349 23.8359 32.0892C21.0494 33.2434 17.9831 33.5454 15.0249 32.957C12.0667 32.3686 9.34938 30.9161 7.21663 28.7834C5.08388 26.6506 3.63146 23.9333 3.04303 20.9751C2.45461 18.0169 2.75661 14.9507 3.91084 12.1641C5.06508 9.3775 7.01971 6.99578 9.52756 5.32009ZM10.222 29.6406C12.5243 31.1789 15.2311 32 18 32C21.713 32 25.274 30.525 27.8995 27.8995C30.525 25.274 32 21.713 32 18C32 15.2311 31.1789 12.5243 29.6406 10.222C28.1022 7.91973 25.9157 6.12531 23.3576 5.06569C20.7994 4.00606 17.9845 3.72881 15.2687 4.26901C12.553 4.8092 10.0584 6.14257 8.10051 8.1005C6.14258 10.0584 4.80921 12.553 4.26901 15.2687C3.72882 17.9845 4.00607 20.7994 5.06569 23.3576C6.12532 25.9157 7.91974 28.1022 10.222 29.6406Z" fill="white" stroke="white"/>
</g>
<defs>
<clipPath id="clip0_1414_2913">
<rect width="36" height="36" fill="white"/>
</clipPath>
</defs>
</svg>
