<svg width="150" height="34" viewBox="0 0 150 34" fill="none" xmlns="http://www.w3.org/2000/svg">
<path d="M0 17C0 7.61116 7.61116 0 17 0H133C142.389 0 150 7.61116 150 17C150 26.3888 142.389 34 133 34H17C7.61116 34 0 26.3888 0 17Z" fill="#F8F0DB"/>
<path d="M28.7634 18.866L29.9782 21.2193L30.0965 21.4486L30.3519 21.485L32.874 21.8445L31.0395 23.5045L30.8029 23.7186L30.8975 24.0235L31.6517 26.4536L28.9938 24.9694L28.75 24.8333L28.5062 24.9694L25.8483 26.4536L26.6025 24.0235L26.6971 23.7186L26.4605 23.5045L24.6298 21.848L27.2437 21.4853L27.508 21.4486L27.6247 21.2086L28.7634 18.866ZM27.5 8.75V9.25H28H30.2492C30.5143 9.25094 30.7684 9.35668 30.9558 9.54416C31.1433 9.73166 31.2491 9.9857 31.25 10.2508C31.25 10.251 31.25 10.2512 31.25 10.2514L31.25 15H30.75V10.25V9.75H30.25H28H27.5V10.25V12H19.5V10.25V9.75H19H16.75H16.25V10.25V26V26.5H16.75H21.5V27L16.7514 27C16.7512 27 16.751 27 16.7508 27C16.4857 26.9991 16.2317 26.8933 16.0442 26.7058C15.8567 26.5183 15.7509 26.2643 15.75 25.9992V10.2508C15.7509 9.98566 15.8567 9.73165 16.0442 9.54416C16.2316 9.35668 16.4857 9.25094 16.7508 9.25H19H19.5V8.75V8.00085C19.5009 7.7357 19.6067 7.48166 19.7942 7.29416L19.4406 6.94061L19.7942 7.29416C19.9816 7.10667 20.2357 7.00094 20.5008 7H26.4992C26.7643 7.00094 27.0184 7.10667 27.2058 7.29416C27.3933 7.48166 27.4991 7.7357 27.5 8.00084V8.75ZM26.5 11.5H27V11V8V7.5H26.5H20.5H20V8V11V11.5H20.5H26.5Z" fill="#FFC63D" stroke="#FFC63D"/>
<path d="M46.356 11.151V23H44.809V11.151H46.356ZM53.5316 13.514C54.6649 13.514 55.5829 13.8597 56.2856 14.551C56.9883 15.231 57.3396 16.217 57.3396 17.509V23H55.8096V17.73C55.8096 16.8007 55.5773 16.0923 55.1126 15.605C54.6479 15.1063 54.0133 14.857 53.2086 14.857C52.3926 14.857 51.7409 15.112 51.2536 15.622C50.7776 16.132 50.5396 16.8743 50.5396 17.849V23H48.9926V13.684H50.5396V15.01C50.8456 14.534 51.2593 14.1657 51.7806 13.905C52.3133 13.6443 52.8969 13.514 53.5316 13.514ZM65.9458 15.401C66.2518 14.8683 66.7052 14.4263 67.3058 14.075C67.9178 13.7123 68.6262 13.531 69.4308 13.531C70.2582 13.531 71.0062 13.7293 71.6748 14.126C72.3548 14.5227 72.8875 15.0837 73.2728 15.809C73.6582 16.523 73.8508 17.356 73.8508 18.308C73.8508 19.2487 73.6582 20.0873 73.2728 20.824C72.8875 21.5607 72.3548 22.133 71.6748 22.541C71.0062 22.949 70.2582 23.153 69.4308 23.153C68.6375 23.153 67.9348 22.9773 67.3228 22.626C66.7222 22.2633 66.2632 21.8157 65.9458 21.283V27.42H64.3988V13.684H65.9458V15.401ZM72.2698 18.308C72.2698 17.6053 72.1282 16.9933 71.8448 16.472C71.5615 15.9507 71.1762 15.554 70.6888 15.282C70.2128 15.01 69.6858 14.874 69.1078 14.874C68.5412 14.874 68.0142 15.0157 67.5268 15.299C67.0508 15.571 66.6655 15.9733 66.3708 16.506C66.0875 17.0273 65.9458 17.6337 65.9458 18.325C65.9458 19.0277 66.0875 19.6453 66.3708 20.178C66.6655 20.6993 67.0508 21.1017 67.5268 21.385C68.0142 21.657 68.5412 21.793 69.1078 21.793C69.6858 21.793 70.2128 21.657 70.6888 21.385C71.1762 21.1017 71.5615 20.6993 71.8448 20.178C72.1282 19.6453 72.2698 19.022 72.2698 18.308ZM77.4341 15.197C77.7061 14.6643 78.0915 14.2507 78.5901 13.956C79.1001 13.6613 79.7178 13.514 80.4431 13.514V15.112H80.0351C78.3011 15.112 77.4341 16.0527 77.4341 17.934V23H75.8871V13.684H77.4341V15.197ZM86.2919 23.153C85.4193 23.153 84.6259 22.9547 83.9119 22.558C83.2093 22.1613 82.6539 21.6003 82.2459 20.875C81.8493 20.1383 81.6509 19.2883 81.6509 18.325C81.6509 17.373 81.8549 16.5343 82.2629 15.809C82.6823 15.0723 83.2489 14.5113 83.9629 14.126C84.6769 13.7293 85.4759 13.531 86.3599 13.531C87.2439 13.531 88.0429 13.7293 88.7569 14.126C89.4709 14.5113 90.0319 15.0667 90.4399 15.792C90.8593 16.5173 91.0689 17.3617 91.0689 18.325C91.0689 19.2883 90.8536 20.1383 90.4229 20.875C90.0036 21.6003 89.4313 22.1613 88.7059 22.558C87.9806 22.9547 87.1759 23.153 86.2919 23.153ZM86.2919 21.793C86.8473 21.793 87.3686 21.6627 87.8559 21.402C88.3433 21.1413 88.7343 20.7503 89.0289 20.229C89.3349 19.7077 89.4879 19.073 89.4879 18.325C89.4879 17.577 89.3406 16.9423 89.0459 16.421C88.7513 15.8997 88.3659 15.5143 87.8899 15.265C87.4139 15.0043 86.8983 14.874 86.3429 14.874C85.7763 14.874 85.2549 15.0043 84.7789 15.265C84.3143 15.5143 83.9403 15.8997 83.6569 16.421C83.3736 16.9423 83.2319 17.577 83.2319 18.325C83.2319 19.0843 83.3679 19.7247 83.6399 20.246C83.9233 20.7673 84.2973 21.1583 84.7619 21.419C85.2266 21.6683 85.7366 21.793 86.2919 21.793ZM96.9449 13.531C97.7496 13.531 98.4523 13.7067 99.0529 14.058C99.6649 14.4093 100.118 14.8513 100.413 15.384V13.684H101.977V23.204C101.977 24.054 101.796 24.8077 101.433 25.465C101.07 26.1337 100.549 26.655 99.8689 27.029C99.2003 27.403 98.4183 27.59 97.5229 27.59C96.2989 27.59 95.2789 27.301 94.4629 26.723C93.6469 26.145 93.1653 25.3573 93.0179 24.36H94.5479C94.7179 24.9267 95.0693 25.38 95.6019 25.72C96.1346 26.0713 96.7749 26.247 97.5229 26.247C98.3729 26.247 99.0643 25.9807 99.5969 25.448C100.141 24.9153 100.413 24.1673 100.413 23.204V21.249C100.107 21.793 99.6536 22.2463 99.0529 22.609C98.4523 22.9717 97.7496 23.153 96.9449 23.153C96.1176 23.153 95.3639 22.949 94.6839 22.541C94.0153 22.133 93.4883 21.5607 93.1029 20.824C92.7176 20.0873 92.5249 19.2487 92.5249 18.308C92.5249 17.356 92.7176 16.523 93.1029 15.809C93.4883 15.0837 94.0153 14.5227 94.6839 14.126C95.3639 13.7293 96.1176 13.531 96.9449 13.531ZM100.413 18.325C100.413 17.6223 100.271 17.0103 99.9879 16.489C99.7046 15.9677 99.3193 15.571 98.8319 15.299C98.3559 15.0157 97.8289 14.874 97.2509 14.874C96.6729 14.874 96.1459 15.01 95.6699 15.282C95.1939 15.554 94.8143 15.9507 94.5309 16.472C94.2476 16.9933 94.1059 17.6053 94.1059 18.308C94.1059 19.022 94.2476 19.6453 94.5309 20.178C94.8143 20.6993 95.1939 21.1017 95.6699 21.385C96.1459 21.657 96.6729 21.793 97.2509 21.793C97.8289 21.793 98.3559 21.657 98.8319 21.385C99.3193 21.1017 99.7046 20.6993 99.9879 20.178C100.271 19.6453 100.413 19.0277 100.413 18.325ZM106.138 15.197C106.41 14.6643 106.796 14.2507 107.294 13.956C107.804 13.6613 108.422 13.514 109.147 13.514V15.112H108.739C107.005 15.112 106.138 16.0527 106.138 17.934V23H104.591V13.684H106.138V15.197ZM119.433 17.985C119.433 18.2797 119.416 18.5913 119.382 18.92H111.936C111.993 19.838 112.304 20.5577 112.871 21.079C113.449 21.589 114.146 21.844 114.962 21.844C115.631 21.844 116.186 21.691 116.628 21.385C117.081 21.0677 117.399 20.6483 117.58 20.127H119.246C118.997 21.0223 118.498 21.7533 117.75 22.32C117.002 22.8753 116.073 23.153 114.962 23.153C114.078 23.153 113.285 22.9547 112.582 22.558C111.891 22.1613 111.347 21.6003 110.95 20.875C110.553 20.1383 110.355 19.2883 110.355 18.325C110.355 17.3617 110.548 16.5173 110.933 15.792C111.318 15.0667 111.857 14.5113 112.548 14.126C113.251 13.7293 114.055 13.531 114.962 13.531C115.846 13.531 116.628 13.7237 117.308 14.109C117.988 14.4943 118.509 15.027 118.872 15.707C119.246 16.3757 119.433 17.135 119.433 17.985ZM117.835 17.662C117.835 17.0727 117.705 16.5683 117.444 16.149C117.183 15.7183 116.826 15.3953 116.373 15.18C115.931 14.9533 115.438 14.84 114.894 14.84C114.112 14.84 113.443 15.0893 112.888 15.588C112.344 16.0867 112.032 16.778 111.953 17.662H117.835ZM124.773 23.153C124.059 23.153 123.419 23.034 122.852 22.796C122.285 22.5467 121.838 22.2067 121.509 21.776C121.18 21.334 120.999 20.8297 120.965 20.263H122.563C122.608 20.7277 122.824 21.1073 123.209 21.402C123.606 21.6967 124.121 21.844 124.756 21.844C125.345 21.844 125.81 21.7137 126.15 21.453C126.49 21.1923 126.66 20.8637 126.66 20.467C126.66 20.059 126.479 19.7587 126.116 19.566C125.753 19.362 125.192 19.1637 124.433 18.971C123.742 18.7897 123.175 18.6083 122.733 18.427C122.302 18.2343 121.928 17.9567 121.611 17.594C121.305 17.22 121.152 16.7327 121.152 16.132C121.152 15.656 121.294 15.2197 121.577 14.823C121.86 14.4263 122.263 14.1147 122.784 13.888C123.305 13.65 123.9 13.531 124.569 13.531C125.6 13.531 126.433 13.7917 127.068 14.313C127.703 14.8343 128.043 15.5483 128.088 16.455H126.541C126.507 15.9677 126.309 15.5767 125.946 15.282C125.595 14.9873 125.119 14.84 124.518 14.84C123.963 14.84 123.521 14.959 123.192 15.197C122.863 15.435 122.699 15.7467 122.699 16.132C122.699 16.438 122.795 16.693 122.988 16.897C123.192 17.0897 123.441 17.2483 123.736 17.373C124.042 17.4863 124.461 17.6167 124.994 17.764C125.663 17.9453 126.207 18.1267 126.626 18.308C127.045 18.478 127.402 18.7387 127.697 19.09C128.003 19.4413 128.162 19.9003 128.173 20.467C128.173 20.977 128.031 21.436 127.748 21.844C127.465 22.252 127.062 22.575 126.541 22.813C126.031 23.0397 125.442 23.153 124.773 23.153ZM133.655 23.153C132.941 23.153 132.301 23.034 131.734 22.796C131.167 22.5467 130.72 22.2067 130.391 21.776C130.062 21.334 129.881 20.8297 129.847 20.263H131.445C131.49 20.7277 131.706 21.1073 132.091 21.402C132.488 21.6967 133.003 21.844 133.638 21.844C134.227 21.844 134.692 21.7137 135.032 21.453C135.372 21.1923 135.542 20.8637 135.542 20.467C135.542 20.059 135.361 19.7587 134.998 19.566C134.635 19.362 134.074 19.1637 133.315 18.971C132.624 18.7897 132.057 18.6083 131.615 18.427C131.184 18.2343 130.81 17.9567 130.493 17.594C130.187 17.22 130.034 16.7327 130.034 16.132C130.034 15.656 130.176 15.2197 130.459 14.823C130.742 14.4263 131.145 14.1147 131.666 13.888C132.187 13.65 132.782 13.531 133.451 13.531C134.482 13.531 135.315 13.7917 135.95 14.313C136.585 14.8343 136.925 15.5483 136.97 16.455H135.423C135.389 15.9677 135.191 15.5767 134.828 15.282C134.477 14.9873 134.001 14.84 133.4 14.84C132.845 14.84 132.403 14.959 132.074 15.197C131.745 15.435 131.581 15.7467 131.581 16.132C131.581 16.438 131.677 16.693 131.87 16.897C132.074 17.0897 132.323 17.2483 132.618 17.373C132.924 17.4863 133.343 17.6167 133.876 17.764C134.545 17.9453 135.089 18.1267 135.508 18.308C135.927 18.478 136.284 18.7387 136.579 19.09C136.885 19.4413 137.044 19.9003 137.055 20.467C137.055 20.977 136.913 21.436 136.63 21.844C136.347 22.252 135.944 22.575 135.423 22.813C134.913 23.0397 134.324 23.153 133.655 23.153Z" fill="#FFC63D"/>
</svg>
