<svg width="174" height="37" viewBox="0 0 174 37" fill="none" xmlns="http://www.w3.org/2000/svg">
<rect x="31" y="8.29504" width="143" height="27.41" rx="4" fill="#303030"/>
<circle cx="39.195" cy="14.49" r="2.195" fill="white"/>
<path d="M41.3925 19.3941V29.996C41.3925 30.9384 40.4124 31.7051 39.1962 31.7051C37.9852 31.7051 37 30.9424 37 29.996V19.3941C37 18.4517 37.9801 17.6851 39.1962 17.6851C40.4073 17.6851 41.3925 18.4478 41.3925 19.3941Z" fill="white"/>
<path d="M53.3902 30.6691L50.0192 24.551C49.9012 24.3406 49.6806 24.2071 49.4394 24.2071C49.0752 24.2071 48.7776 24.5048 48.7776 24.8692V30.3457C48.7776 30.7101 48.48 31.0078 48.1157 31.0078H45.0525C44.6882 31.0078 44.3906 30.7101 44.3906 30.3457V13.6545C44.3906 13.2901 44.6882 12.9924 45.0525 12.9924H51.7535C53.1748 12.9924 54.3805 13.2388 55.3862 13.7367C56.3867 14.2345 57.1358 14.912 57.6335 15.7794C58.1312 16.6417 58.3775 17.6066 58.3775 18.6639C58.3775 19.8598 58.0389 20.9325 57.3667 21.8718C56.8177 22.6314 56.0635 23.2165 55.0988 23.6169C54.7294 23.7709 54.5755 24.2123 54.7756 24.5562L57.9516 30.0121C58.2082 30.4535 57.8901 31.0078 57.3821 31.0078H53.97C53.7289 31.0078 53.5083 30.8744 53.3902 30.6639V30.6691ZM48.7827 20.445C48.7827 20.8094 49.0803 21.1071 49.4446 21.1071H51.5021C52.3076 21.1071 52.9079 20.912 53.3082 20.5168C53.7084 20.1216 53.9136 19.5673 53.9136 18.8487C53.9136 18.1302 53.7135 17.6272 53.3082 17.232C52.9079 16.8367 52.3025 16.6417 51.5021 16.6417H49.4446C49.0803 16.6417 48.7827 16.9394 48.7827 17.3038V20.445Z" fill="white"/>
<path d="M63.7658 18.202V18.4586C63.7658 19.3928 64.5252 20.1524 65.459 20.1524H67.9475C68.8814 20.1524 69.6407 20.912 69.6407 21.8461C69.6407 22.7803 68.8814 23.5399 67.9475 23.5399H65.459C64.5252 23.5399 63.7658 24.2995 63.7658 25.2337V25.7982C63.7658 26.7324 64.5252 27.492 65.459 27.492H68.7172C69.651 27.492 70.4104 28.2516 70.4104 29.1858V29.3141C70.4104 30.2482 69.651 31.0078 68.7172 31.0078H61.0721C60.1383 31.0078 59.3789 30.2482 59.3789 29.3141V14.6862C59.3789 13.7521 60.1383 12.9924 61.0721 12.9924H68.7172C69.651 12.9924 70.4104 13.7521 70.4104 14.6862V14.8145C70.4104 15.7486 69.651 16.5083 68.7172 16.5083H65.459C64.5252 16.5083 63.7658 17.2679 63.7658 18.202Z" fill="white"/>
<path d="M72.5715 17.2241C73.3457 15.8197 74.4245 14.7303 75.8078 13.9455C77.1911 13.1607 78.7653 12.7734 80.5151 12.7734C82.6674 12.7734 84.5049 13.3414 86.0379 14.4773C86.4147 14.7561 86.7605 15.0607 87.0754 15.3912C88.4174 16.7956 87.4109 19.1242 85.4701 19.1242H85.465C84.794 19.1242 84.1591 18.8195 83.7462 18.2929C83.4571 17.9263 83.1165 17.6268 82.7242 17.3945C82.0635 16.9969 81.3099 16.8007 80.4635 16.8007C79.106 16.8007 78.0014 17.2757 77.1601 18.2206C76.3188 19.1655 75.8955 20.4305 75.8955 22.0156C75.8955 23.6007 76.3188 24.8657 77.1601 25.8105C78.0014 26.7554 79.106 27.2304 80.4635 27.2304C81.3048 27.2304 82.0584 27.0342 82.7242 26.6366C83.1165 26.3991 83.4571 26.0997 83.7462 25.7382C84.1591 25.2116 84.794 24.907 85.465 24.907C87.4109 24.907 88.4174 27.2459 87.065 28.6451C86.7553 28.9704 86.4095 29.2647 86.0379 29.5384C84.5049 30.6639 82.6674 31.2267 80.5151 31.2267C78.7602 31.2267 77.1911 30.8343 75.8078 30.0547C74.4245 29.2699 73.3457 28.1856 72.5715 26.7864C71.7973 25.3923 71.4102 23.802 71.4102 22.0104C71.4102 20.2188 71.7973 18.6233 72.5715 17.2241Z" fill="white"/>
<path d="M97.6871 30.6691L94.3161 24.551C94.1981 24.3406 93.9775 24.2071 93.7363 24.2071C93.372 24.2071 93.0744 24.5048 93.0744 24.8692V30.3457C93.0744 30.7101 92.7768 31.0078 92.4125 31.0078H89.3494C88.9851 31.0078 88.6875 30.7101 88.6875 30.3457V13.6545C88.6875 13.2901 88.9851 12.9924 89.3494 12.9924H96.0504C97.4716 12.9924 98.6774 13.2388 99.6831 13.7367C100.684 14.2345 101.433 14.912 101.93 15.7794C102.428 16.6417 102.674 17.6066 102.674 18.6639C102.674 19.8598 102.336 20.9325 101.664 21.8718C101.115 22.6314 100.36 23.2165 99.3957 23.6169C99.0263 23.7709 98.8724 24.2123 99.0725 24.5562L102.249 30.0121C102.505 30.4535 102.187 31.0078 101.679 31.0078H98.2669C98.0258 31.0078 97.8051 30.8744 97.6871 30.6639V30.6691ZM93.0796 20.445C93.0796 20.8094 93.3772 21.1071 93.7415 21.1071H95.7989C96.6045 21.1071 97.2048 20.912 97.605 20.5168C98.0052 20.1216 98.2105 19.5673 98.2105 18.8487C98.2105 18.1302 98.0104 17.6272 97.605 17.232C97.2048 16.8367 96.5994 16.6417 95.7989 16.6417H93.7415C93.3772 16.6417 93.0796 16.9394 93.0796 17.3038V20.445Z" fill="white"/>
<path d="M105.884 12.8691C107.099 12.8691 108.083 13.8528 108.083 15.0682V23.684C108.083 24.7655 108.35 25.5998 108.881 26.1817C109.411 26.7637 110.193 27.0572 111.223 27.0572C112.253 27.0572 113.04 26.7637 113.591 26.1817C114.142 25.5998 114.415 24.7655 114.415 23.684V15.0733C114.415 13.8579 115.398 12.8743 116.613 12.8743C117.828 12.8743 118.812 13.8579 118.812 15.0733V23.6634C118.812 25.2754 118.467 26.6401 117.782 27.7576C117.097 28.8752 116.176 29.7146 115.012 30.2811C113.854 30.8476 112.562 31.1308 111.141 31.1308C109.72 31.1308 108.443 30.8527 107.321 30.2966C106.198 29.7404 105.308 28.8958 104.654 27.7731C104 26.6504 103.676 25.2805 103.676 23.6634V15.0733C103.676 13.8579 104.659 12.8743 105.874 12.8743L105.884 12.8691Z" fill="white"/>
<path d="M124.201 15.186V28.8143C124.201 30.0257 123.221 31.0112 122.005 31.0112C120.794 31.0112 119.809 30.0308 119.809 28.8143V15.186C119.809 13.9746 120.789 12.989 122.005 12.989C123.216 12.989 124.201 13.9694 124.201 15.186Z" fill="white"/>
<path d="M139.152 14.7464C139.152 15.7167 138.366 16.5072 137.391 16.5072H136.134C135.164 16.5072 134.374 17.2927 134.374 18.268V29.2539C134.374 30.2241 133.589 31.0147 132.614 31.0147H131.741C130.771 31.0147 129.981 30.2292 129.981 29.2539V18.268C129.981 17.2978 129.196 16.5072 128.221 16.5072H126.963C125.993 16.5072 125.203 15.7218 125.203 14.7464C125.203 13.7762 125.988 12.9856 126.963 12.9856H137.381C138.351 12.9856 139.141 13.771 139.141 14.7464H139.152Z" fill="white"/>
<path d="M147.998 24.1966L143.86 24.1961C142.918 24.1961 142.151 23.216 142.151 21.9998C142.151 20.7888 142.914 19.8036 143.86 19.8036L147.998 19.8041C148.94 19.8041 149.707 20.7842 149.707 22.0003C149.707 23.2113 148.944 24.1966 147.998 24.1966Z" fill="white"/>
<path d="M154.92 12.8691C156.135 12.8691 157.118 13.8528 157.118 15.0682V23.684C157.118 24.7655 157.386 25.5998 157.916 26.1817C158.446 26.7637 159.229 27.0572 160.258 27.0572C161.288 27.0572 162.076 26.7637 162.626 26.1817C163.177 25.5998 163.45 24.7655 163.45 23.684V15.0733C163.45 13.8579 164.434 12.8743 165.649 12.8743C166.864 12.8743 167.847 13.8579 167.847 15.0733V23.6634C167.847 25.2754 167.502 26.6401 166.817 27.7576C166.132 28.8752 165.211 29.7146 164.047 30.2811C162.889 30.8476 161.597 31.1308 160.176 31.1308C158.755 31.1308 157.478 30.8527 156.356 30.2966C155.234 29.7404 154.343 28.8958 153.689 27.7731C153.035 26.6504 152.711 25.2805 152.711 23.6634V15.0733C152.711 13.8579 153.694 12.8743 154.909 12.8743L154.92 12.8691Z" fill="white"/>
<g clip-path="url(#clip0_1602_3030)">
<path d="M25.8413 8.8429H17.8048L12.478 18.6743H17.266L6.22746 32.1358L6.82788 30.2074L9.60676 20.3759H6.34293L9.72223 8.8429H1.05459C0.469561 8.8429 0 9.30422 0 9.87898V24.3387C0 26.6529 0.43877 28.6646 1.30861 30.3737C2.17846 32.0829 3.4024 33.3912 4.98813 34.2987C6.56616 35.1987 8.39052 35.6525 10.4535 35.6525C12.1932 35.6525 13.7866 35.297 15.2184 34.5861C15.8496 34.2761 16.4192 33.9206 16.9273 33.5198C17.6124 32.9828 18.6285 33.4744 18.6285 34.3366C18.6285 34.9113 19.0981 35.3726 19.6831 35.3726H25.8413C26.4263 35.3726 26.8959 34.9113 26.8959 34.3366V9.87898C26.8959 9.30422 26.4263 8.8429 25.8413 8.8429Z" fill="#F2665D"/>
<path d="M10.8018 6.83295C10.0927 6.05957 9.72238 4.95474 9.76965 3.86691C9.81693 2.77907 10.203 1.89521 10.9279 1.16432C11.7 0.39094 12.7006 0 13.9219 0C15.1431 0 16.0965 0.39094 16.8686 1.16432C17.6013 1.90371 17.9874 2.81307 18.0268 3.9094C18.0662 5.00573 17.6801 6.09357 16.9631 6.85845C16.1753 7.69982 15.1589 8.11626 13.9219 8.11626C12.6849 8.11626 11.5976 7.69132 10.8097 6.82445L10.8018 6.83295Z" fill="#F2665D"/>
</g>
<defs>
<clipPath id="clip0_1602_3030">
<rect width="26.8959" height="35.6525" fill="white"/>
</clipPath>
</defs>
</svg>
