<svg width="198" height="49" viewBox="0 0 198 49" fill="none" xmlns="http://www.w3.org/2000/svg">
<rect x="43" y="12" width="154.908" height="36" rx="4" fill="#303030"/>
<circle cx="52" cy="19.5" r="3" fill="white"/>
<path d="M55 25.918V41.082C55 42.4153 53.6612 43.5 52 43.5C50.3458 43.5 49 42.4209 49 41.082V25.918C49 24.5847 50.3388 23.5 52 23.5C53.6542 23.5 55 24.5791 55 25.918Z" fill="white"/>
<path d="M70.996 42.5184L66.1281 33.6835C65.9577 33.3797 65.6391 33.187 65.2908 33.187C64.7648 33.187 64.335 33.6168 64.335 34.1431V42.0515C64.335 42.5777 63.9053 43.0076 63.3792 43.0076H58.9558C58.4297 43.0076 58 42.5777 58 42.0515V17.9483C58 17.4221 58.4297 16.9922 58.9558 16.9922H68.6325C70.6849 16.9922 72.4261 17.348 73.8783 18.0669C75.3231 18.7858 76.4049 19.7642 77.1236 21.0168C77.8423 22.262 78.198 23.6554 78.198 25.1822C78.198 26.9092 77.7089 28.4582 76.7383 29.8146C75.9455 30.9115 74.8563 31.7565 73.4634 32.3346C72.9299 32.557 72.7076 33.1944 72.9966 33.691L77.583 41.5697C77.9534 42.2071 77.4941 43.0076 76.7605 43.0076H71.8333C71.4851 43.0076 71.1665 42.8149 70.996 42.511V42.5184ZM64.3424 27.7541C64.3424 28.2803 64.7722 28.7102 65.2982 28.7102H68.2694C69.4327 28.7102 70.2996 28.4286 70.8775 27.8579C71.4554 27.2872 71.7518 26.4867 71.7518 25.449C71.7518 24.4114 71.4628 23.685 70.8775 23.1143C70.2996 22.5436 69.4253 22.262 68.2694 22.262H65.2982C64.7722 22.262 64.3424 22.6919 64.3424 23.2181V27.7541Z" fill="white"/>
<path d="M85.5333 24.5152V24.8857C85.5333 26.2347 86.6298 27.3316 87.9783 27.3316H91.5719C92.9204 27.3316 94.017 28.4286 94.017 29.7775C94.017 31.1265 92.9204 32.2234 91.5719 32.2234H87.9783C86.6298 32.2234 85.5333 33.3204 85.5333 34.6693V35.4846C85.5333 36.8336 86.6298 37.9305 87.9783 37.9305H92.6833C94.0318 37.9305 95.1284 39.0274 95.1284 40.3764V40.5617C95.1284 41.9106 94.0318 43.0076 92.6833 43.0076H81.6433C80.2948 43.0076 79.1982 41.9106 79.1982 40.5617V19.4381C79.1982 18.0891 80.2948 16.9922 81.6433 16.9922H92.6833C94.0318 16.9922 95.1284 18.0891 95.1284 19.4381V19.6234C95.1284 20.9723 94.0318 22.0693 92.6833 22.0693H87.9783C86.6298 22.0693 85.5333 23.1662 85.5333 24.5152Z" fill="white"/>
<path d="M97.7927 23.1535C98.9026 21.1403 100.449 19.5785 102.432 18.4535C104.415 17.3284 106.672 16.7733 109.18 16.7733C112.266 16.7733 114.9 17.5875 117.097 19.2158C117.637 19.6155 118.133 20.0522 118.584 20.5259C120.508 22.5392 119.065 25.8773 116.283 25.8773H116.276C115.314 25.8773 114.404 25.4406 113.812 24.6856C113.398 24.1601 112.909 23.7308 112.347 23.3977C111.4 22.8278 110.32 22.5466 109.106 22.5466C107.16 22.5466 105.577 23.2275 104.371 24.582C103.165 25.9365 102.558 27.7499 102.558 30.0222C102.558 32.2944 103.165 34.1078 104.371 35.4623C105.577 36.8168 107.16 37.4978 109.106 37.4978C110.312 37.4978 111.392 37.2165 112.347 36.6466C112.909 36.3061 113.398 35.8768 113.812 35.3587C114.404 34.6037 115.314 34.167 116.276 34.167C119.065 34.167 120.508 37.52 118.57 39.5258C118.126 39.9921 117.63 40.414 117.097 40.8063C114.9 42.4198 112.266 43.2266 109.18 43.2266C106.664 43.2266 104.415 42.6641 102.432 41.5464C100.449 40.4214 98.9026 38.8671 97.7927 36.8612C96.6829 34.8628 96.1279 32.5831 96.1279 30.0148C96.1279 27.4464 96.6829 25.1593 97.7927 23.1535Z" fill="white"/>
<path d="M133.46 42.5184L128.592 33.6835C128.422 33.3797 128.103 33.187 127.755 33.187C127.229 33.187 126.799 33.6168 126.799 34.1431V42.0515C126.799 42.5777 126.369 43.0076 125.843 43.0076H121.42C120.894 43.0076 120.464 42.5777 120.464 42.0515V17.9483C120.464 17.4221 120.894 16.9922 121.42 16.9922H131.096C133.149 16.9922 134.89 17.348 136.342 18.0669C137.787 18.7858 138.869 19.7642 139.587 21.0168C140.306 22.262 140.662 23.6554 140.662 25.1822C140.662 26.9092 140.173 28.4582 139.202 29.8146C138.409 30.9115 137.32 31.7565 135.927 32.3346C135.394 32.557 135.171 33.1944 135.46 33.691L140.047 41.5697C140.417 42.2071 139.958 43.0076 139.224 43.0076H134.297C133.949 43.0076 133.63 42.8149 133.46 42.511V42.5184ZM126.806 27.7541C126.806 28.2803 127.236 28.7102 127.762 28.7102H130.733C131.897 28.7102 132.763 28.4286 133.341 27.8579C133.919 27.2872 134.216 26.4867 134.216 25.449C134.216 24.4114 133.927 23.685 133.341 23.1143C132.763 22.5436 131.889 22.262 130.733 22.262H127.762C127.236 22.262 126.806 22.6919 126.806 23.2181V27.7541Z" fill="white"/>
<path d="M144.838 16.8691C146.585 16.8691 148 18.2837 148 20.0315V32.4218C148 33.977 148.385 35.1768 149.147 36.0137C149.91 36.8506 151.035 37.2727 152.516 37.2727C153.996 37.2727 155.129 36.8506 155.921 36.0137C156.714 35.1768 157.106 33.977 157.106 32.4218V20.0389C157.106 18.2911 158.52 16.8765 160.267 16.8765C162.015 16.8765 163.429 18.2911 163.429 20.0389V32.3921C163.429 34.7102 162.933 36.6728 161.948 38.2799C160.963 39.887 159.638 41.0942 157.965 41.9089C156.299 42.7235 154.441 43.1308 152.397 43.1308C150.354 43.1308 148.518 42.7309 146.904 41.9311C145.29 41.1312 144.009 39.9166 143.069 38.3021C142.129 36.6876 141.662 34.7176 141.662 32.3921V20.0389C141.662 18.2911 143.076 16.8765 144.823 16.8765L144.838 16.8691Z" fill="white"/>
<path d="M170.771 20.1609V39.8388C170.771 41.588 169.356 43.011 167.6 43.011C165.851 43.011 164.429 41.5954 164.429 39.8388V20.1609C164.429 18.4118 165.844 16.9888 167.6 16.9888C169.348 16.9888 170.771 18.4044 170.771 20.1609Z" fill="white"/>
<path d="M191.908 19.5275C191.908 20.9283 190.775 22.0696 189.367 22.0696H187.552C186.151 22.0696 185.01 23.2036 185.01 24.6118V40.4723C185.01 41.8731 183.877 43.0144 182.469 43.0144H181.21C179.809 43.0144 178.668 41.8805 178.668 40.4723V24.6118C178.668 23.211 177.535 22.0696 176.127 22.0696H174.312C172.912 22.0696 171.771 20.9357 171.771 19.5275C171.771 18.1267 172.904 16.9854 174.312 16.9854H189.352C190.752 16.9854 191.893 18.1193 191.893 19.5275H191.908Z" fill="white"/>
<g clip-path="url(#clip0_1_9327)">
<path d="M34.397 11.9849H23.6998L16.6093 25.3095H22.9825L8.28929 43.5539L9.0885 40.9402L12.7874 27.6156H8.44298L12.9411 11.9849H1.40375C0.625027 11.9849 0 12.6101 0 13.3891V32.9865C0 36.1229 0.584041 38.8493 1.74188 41.1657C2.89971 43.4821 4.52888 45.2553 6.63963 46.4853C8.74013 47.705 11.1685 48.32 13.9145 48.32C16.2302 48.32 18.3512 47.8383 20.257 46.8748C21.0972 46.4545 21.8554 45.9728 22.5317 45.4296C23.4436 44.7019 24.7961 45.3681 24.7961 46.5365C24.7961 47.3155 25.4212 47.9408 26.1999 47.9408H34.397C35.1757 47.9408 35.8007 47.3155 35.8007 46.5365V13.3891C35.8007 12.6101 35.1757 11.9849 34.397 11.9849Z" fill="#F2665D"/>
<path d="M14.3792 9.26073C13.4354 8.21256 12.9424 6.71518 13.0054 5.24084C13.0683 3.76649 13.5822 2.56859 14.547 1.57801C15.5748 0.529843 16.9067 0 18.5323 0C20.1579 0 21.4269 0.529843 22.4547 1.57801C23.43 2.5801 23.9439 3.81256 23.9963 5.29843C24.0488 6.78429 23.5349 8.25864 22.5805 9.29529C21.5318 10.4356 20.1789 11 18.5323 11C16.8858 11 15.4385 10.4241 14.3897 9.24921L14.3792 9.26073Z" fill="#F2665D"/>
</g>
<defs>
<clipPath id="clip0_1_9327">
<rect width="35.8007" height="48.32" fill="white"/>
</clipPath>
</defs>
</svg>
