<svg width="53" height="53" viewBox="0 0 53 53" fill="none" xmlns="http://www.w3.org/2000/svg">
<path d="M50.8463 16.1484L44.0557 9.35776L43.8072 9.10932C43.3104 8.77807 42.8135 8.61244 42.3166 8.61244L31.6338 9.52338C23.601 2.81557 13.4979 -0.082867 4.96819 2.23588C3.64319 2.56713 2.56663 3.6437 2.23538 4.9687C-0.0833745 13.4156 2.81506 23.6015 9.60569 31.5515L8.69475 42.0687V42.2343C8.69475 42.7312 8.86037 43.3109 9.19163 43.7249L16.2307 50.8468C16.7276 51.3437 17.3073 51.5921 17.9697 51.5921C18.2182 51.5921 18.4666 51.5921 18.6322 51.5093C19.4604 51.2609 20.1229 50.5156 20.3713 49.6874L21.3651 40.8265C22.5244 41.4062 23.6838 41.9031 24.8432 42.3171C25.2572 42.4828 25.6713 42.5656 26.0854 42.5656C27.1619 42.5656 28.1557 42.1515 28.901 41.4062L41.2401 29.0671C42.3166 27.9906 42.7307 26.3343 42.2338 24.9265C41.8197 23.7671 41.3229 22.6078 40.7432 21.4484L49.4385 20.4546H49.6041C50.5151 20.289 51.1776 19.6265 51.426 18.7156C51.6744 17.7218 51.5088 16.8109 50.8463 16.1484ZM16.8932 46.3749L12.4213 41.8203L13.001 35.1124C14.4916 36.4374 16.0651 37.6796 17.7213 38.7562L16.8932 46.3749ZM38.5901 26.3343L26.3338 38.5906C26.251 38.6734 26.1682 38.6734 26.0854 38.6734C21.7791 37.1828 17.6385 34.5328 14.2432 31.1374C6.95569 23.7671 3.64319 13.9124 5.79631 5.96245C5.87912 5.87963 5.87912 5.79682 5.96194 5.79682C7.61819 5.38276 9.27444 5.13432 11.0135 5.13432C17.8869 5.13432 25.3401 8.36401 31.0541 14.1609C34.4494 17.5562 37.0994 21.6968 38.5901 26.0031C38.6729 26.1687 38.6729 26.2515 38.5901 26.3343ZM38.7557 17.8046C37.6791 16.1484 36.4369 14.4921 35.1119 13.0015L41.8197 12.4218L46.2916 16.8937L38.7557 17.8046Z" fill="#FFC63D"/>
<path d="M45.7946 33.2905C45.5462 33.1249 44.6353 32.7108 43.6415 33.5389C42.8134 34.2014 38.9212 38.0936 38.1759 38.8389C32.8759 44.1389 32.8759 44.1389 33.2071 45.2983C33.29 45.6295 33.4556 45.9608 33.704 46.1264C36.354 48.7764 40.4118 49.3561 43.4759 49.3561C45.7946 49.3561 47.5337 49.0248 47.6993 48.942C48.4446 48.7764 49.0243 48.1967 49.19 47.4514C49.2728 47.0374 51.0118 38.1764 46.2915 33.4561C46.0431 33.4561 45.8775 33.3733 45.7946 33.2905ZM45.629 45.6295C43.4759 45.878 40.1634 45.878 37.679 44.6358C39.5009 42.8139 42.7306 39.5014 44.5525 37.7624C45.7946 40.0811 45.7946 43.4764 45.629 45.6295Z" fill="#FFC63D"/>
<path d="M21.6137 14.7405C17.8043 14.7405 14.7402 17.8045 14.7402 21.6139C14.7402 25.4233 17.8043 28.4874 21.6137 28.4874C25.423 28.4874 28.4871 25.4233 28.4871 21.6139C28.4871 17.8045 25.423 14.7405 21.6137 14.7405ZM21.6137 24.8436C19.8746 24.8436 18.4668 23.4358 18.4668 21.6967C18.4668 19.9577 19.8746 18.5499 21.6137 18.5499C23.3527 18.5499 24.8434 19.8749 24.8434 21.6139C24.8434 23.353 23.3527 24.8436 21.6137 24.8436Z" fill="#FFC63D"/>
</svg>
