<svg width="23" height="23" viewBox="0 0 23 23" fill="none" xmlns="http://www.w3.org/2000/svg">
<path d="M5.30989 18.7066C4.7253 18.7066 4.17905 18.5053 3.78614 18.1316C3.2878 17.662 3.04822 16.9528 3.13447 16.1862L3.48905 13.0812C3.55614 12.4966 3.91072 11.7203 4.3228 11.2987L12.1907 2.97074C14.1553 0.891154 16.2061 0.833655 18.2857 2.79824C20.3653 4.76282 20.4228 6.81365 18.4582 8.89324L10.5903 17.2212C10.1878 17.6524 9.4403 18.0549 8.85572 18.1507L5.76989 18.6778C5.60697 18.6874 5.46322 18.7066 5.30989 18.7066ZM15.267 2.78865C14.5291 2.78865 13.887 3.24865 13.2353 3.93865L5.36739 12.2762C5.17572 12.4774 4.9553 12.9566 4.91697 13.2345L4.56239 16.3395C4.52405 16.6557 4.60072 16.9145 4.77322 17.0774C4.94572 17.2403 5.20447 17.2978 5.52072 17.2499L8.60655 16.7228C8.88447 16.6749 9.34447 16.4257 9.53614 16.2245L17.4041 7.89657C18.5924 6.63157 19.0236 5.4624 17.2891 3.83324C16.5224 3.09532 15.8611 2.78865 15.267 2.78865Z" fill="#BBBBBB"/>
<path d="M16.6178 10.4936C16.5986 10.4936 16.5698 10.4936 16.5507 10.4936C13.5607 10.1966 11.1553 7.92531 10.6953 4.95448C10.6378 4.56156 10.9061 4.1974 11.299 4.13031C11.6919 4.07281 12.0561 4.34115 12.1232 4.73406C12.4873 7.05323 14.3657 8.83573 16.704 9.06573C17.0969 9.10406 17.3844 9.45865 17.3461 9.85156C17.2982 10.2157 16.9819 10.4936 16.6178 10.4936Z" fill="#BBBBBB"/>
<path d="M20.125 21.802H2.875C2.48208 21.802 2.15625 21.4762 2.15625 21.0833C2.15625 20.6903 2.48208 20.3645 2.875 20.3645H20.125C20.5179 20.3645 20.8438 20.6903 20.8438 21.0833C20.8438 21.4762 20.5179 21.802 20.125 21.802Z" fill="#BBBBBB"/>
</svg>
