<svg width="146" height="34" viewBox="0 0 146 34" fill="none" xmlns="http://www.w3.org/2000/svg">
<path d="M0 17C0 7.61116 7.61116 0 17 0H129C138.389 0 146 7.61116 146 17C146 26.3888 138.389 34 129 34H17C7.61116 34 0 26.3888 0 17Z" fill="#FFF0EF" fill-opacity="0.87451"/>
<path d="M38.9267 12.8233L38.9268 12.8234C38.9736 12.8702 39 12.9337 39 13C39 13 39 13.0001 39 13.0001V17H38.5V14.5V14H38L33.5005 14C33.5004 14 33.5002 14 33.5001 14C33.235 13.9996 32.9808 13.8941 32.7933 13.7067C32.6059 13.5192 32.5004 13.265 32.5 12.9999C32.5 12.9998 32.5 12.9996 32.5 12.9995L32.5 8.5V8H32H26H25.5V8.5V26.5V27H26H31.5V27.5H26.0006C25.7353 27.4997 25.481 27.3942 25.2934 27.2066C25.1059 27.0191 25.0004 26.7649 25 26.4997V8.50028C25.0003 8.23509 25.1058 7.98085 25.2933 7.79333C25.4809 7.60581 25.7351 7.50032 26.0003 7.5H33.4999C33.4999 7.5 33.5 7.5 33.5 7.5C33.5663 7.50004 33.6298 7.52639 33.6766 7.57325L33.6767 7.5733L38.9267 12.8233ZM33.8536 8.45702L33 7.60347V8.81058V13V13.5H33.5H37.6894H38.8965L38.043 12.6464L33.8536 8.45702Z" fill="#FF2715" stroke="#FF2715"/>
<path d="M39.3075 24.75L42 22.0575L40.9425 21L38.25 23.6925L35.5575 21L34.5 22.0575L37.1925 24.75L34.5 27.4425L35.5575 28.5L38.25 25.8075L40.9425 28.5L42 27.4425L39.3075 24.75Z" fill="#FF2715"/>
<path d="M59.048 23L56.226 18.155H54.356V23H52.809V11.151H56.634C57.5293 11.151 58.283 11.304 58.895 11.61C59.5183 11.916 59.983 12.3297 60.289 12.851C60.595 13.3723 60.748 13.9673 60.748 14.636C60.748 15.452 60.51 16.1717 60.034 16.795C59.5693 17.4183 58.8667 17.832 57.926 18.036L60.901 23H59.048ZM54.356 16.914H56.634C57.4727 16.914 58.1017 16.71 58.521 16.302C58.9403 15.8827 59.15 15.3273 59.15 14.636C59.15 13.9333 58.9403 13.3893 58.521 13.004C58.113 12.6187 57.484 12.426 56.634 12.426H54.356V16.914ZM71.6518 17.985C71.6518 18.2797 71.6348 18.5913 71.6008 18.92H64.1548C64.2114 19.838 64.5231 20.5577 65.0898 21.079C65.6678 21.589 66.3648 21.844 67.1808 21.844C67.8494 21.844 68.4048 21.691 68.8468 21.385C69.3001 21.0677 69.6174 20.6483 69.7988 20.127H71.4648C71.2154 21.0223 70.7168 21.7533 69.9688 22.32C69.2208 22.8753 68.2914 23.153 67.1808 23.153C66.2968 23.153 65.5034 22.9547 64.8008 22.558C64.1094 22.1613 63.5654 21.6003 63.1688 20.875C62.7721 20.1383 62.5738 19.2883 62.5738 18.325C62.5738 17.3617 62.7664 16.5173 63.1518 15.792C63.5371 15.0667 64.0754 14.5113 64.7668 14.126C65.4694 13.7293 66.2741 13.531 67.1808 13.531C68.0648 13.531 68.8468 13.7237 69.5268 14.109C70.2068 14.4943 70.7281 15.027 71.0908 15.707C71.4648 16.3757 71.6518 17.135 71.6518 17.985ZM70.0538 17.662C70.0538 17.0727 69.9234 16.5683 69.6628 16.149C69.4021 15.7183 69.0451 15.3953 68.5918 15.18C68.1498 14.9533 67.6568 14.84 67.1128 14.84C66.3308 14.84 65.6621 15.0893 65.1068 15.588C64.5628 16.0867 64.2511 16.778 64.1718 17.662H70.0538ZM74.5268 12.171C74.2321 12.171 73.9828 12.069 73.7788 11.865C73.5861 11.661 73.4898 11.4117 73.4898 11.117C73.4898 10.8223 73.5861 10.573 73.7788 10.369C73.9828 10.165 74.2321 10.063 74.5268 10.063C74.8214 10.063 75.0651 10.165 75.2578 10.369C75.4618 10.573 75.5638 10.8223 75.5638 11.117C75.5638 11.4117 75.4618 11.661 75.2578 11.865C75.0651 12.069 74.8214 12.171 74.5268 12.171ZM75.2918 25.023C75.2918 25.8503 75.0821 26.4567 74.6628 26.842C74.2434 27.2273 73.6314 27.42 72.8268 27.42H71.9258V26.111H72.5718C73.0024 26.111 73.3028 26.026 73.4728 25.856C73.6541 25.686 73.7448 25.397 73.7448 24.989V13.684H75.2918V25.023ZM86.4106 17.985C86.4106 18.2797 86.3936 18.5913 86.3596 18.92H78.9136C78.9702 19.838 79.2819 20.5577 79.8486 21.079C80.4266 21.589 81.1236 21.844 81.9396 21.844C82.6082 21.844 83.1636 21.691 83.6056 21.385C84.0589 21.0677 84.3762 20.6483 84.5576 20.127H86.2236C85.9742 21.0223 85.4756 21.7533 84.7276 22.32C83.9796 22.8753 83.0502 23.153 81.9396 23.153C81.0556 23.153 80.2622 22.9547 79.5596 22.558C78.8682 22.1613 78.3242 21.6003 77.9276 20.875C77.5309 20.1383 77.3326 19.2883 77.3326 18.325C77.3326 17.3617 77.5252 16.5173 77.9106 15.792C78.2959 15.0667 78.8342 14.5113 79.5256 14.126C80.2282 13.7293 81.0329 13.531 81.9396 13.531C82.8236 13.531 83.6056 13.7237 84.2856 14.109C84.9656 14.4943 85.4869 15.027 85.8496 15.707C86.2236 16.3757 86.4106 17.135 86.4106 17.985ZM84.8126 17.662C84.8126 17.0727 84.6822 16.5683 84.4216 16.149C84.1609 15.7183 83.8039 15.3953 83.3506 15.18C82.9086 14.9533 82.4156 14.84 81.8716 14.84C81.0896 14.84 80.4209 15.0893 79.8656 15.588C79.3216 16.0867 79.0099 16.778 78.9306 17.662H84.8126ZM87.8746 18.325C87.8746 17.3617 88.0672 16.523 88.4526 15.809C88.8379 15.0837 89.3706 14.5227 90.0506 14.126C90.7419 13.7293 91.5296 13.531 92.4136 13.531C93.5582 13.531 94.4989 13.8087 95.2356 14.364C95.9836 14.9193 96.4766 15.69 96.7146 16.676H95.0486C94.8899 16.1093 94.5782 15.6617 94.1136 15.333C93.6602 15.0043 93.0936 14.84 92.4136 14.84C91.5296 14.84 90.8156 15.146 90.2716 15.758C89.7276 16.3587 89.4556 17.2143 89.4556 18.325C89.4556 19.447 89.7276 20.314 90.2716 20.926C90.8156 21.538 91.5296 21.844 92.4136 21.844C93.0936 21.844 93.6602 21.6853 94.1136 21.368C94.5669 21.0507 94.8786 20.5973 95.0486 20.008H96.7146C96.4652 20.96 95.9666 21.725 95.2186 22.303C94.4706 22.8697 93.5356 23.153 92.4136 23.153C91.5296 23.153 90.7419 22.9547 90.0506 22.558C89.3706 22.1613 88.8379 21.6003 88.4526 20.875C88.0672 20.1497 87.8746 19.2997 87.8746 18.325ZM100.666 14.959V20.45C100.666 20.9033 100.762 21.2263 100.955 21.419C101.147 21.6003 101.482 21.691 101.958 21.691H103.097V23H101.703C100.841 23 100.195 22.8017 99.7647 22.405C99.3341 22.0083 99.1187 21.3567 99.1187 20.45V14.959H97.9117V13.684H99.1187V11.338H100.666V13.684H103.097V14.959H100.666ZM113.471 17.985C113.471 18.2797 113.454 18.5913 113.42 18.92H105.974C106.031 19.838 106.342 20.5577 106.909 21.079C107.487 21.589 108.184 21.844 109 21.844C109.669 21.844 110.224 21.691 110.666 21.385C111.119 21.0677 111.437 20.6483 111.618 20.127H113.284C113.035 21.0223 112.536 21.7533 111.788 22.32C111.04 22.8753 110.111 23.153 109 23.153C108.116 23.153 107.323 22.9547 106.62 22.558C105.929 22.1613 105.385 21.6003 104.988 20.875C104.591 20.1383 104.393 19.2883 104.393 18.325C104.393 17.3617 104.586 16.5173 104.971 15.792C105.356 15.0667 105.895 14.5113 106.586 14.126C107.289 13.7293 108.093 13.531 109 13.531C109.884 13.531 110.666 13.7237 111.346 14.109C112.026 14.4943 112.547 15.027 112.91 15.707C113.284 16.3757 113.471 17.135 113.471 17.985ZM111.873 17.662C111.873 17.0727 111.743 16.5683 111.482 16.149C111.221 15.7183 110.864 15.3953 110.411 15.18C109.969 14.9533 109.476 14.84 108.932 14.84C108.15 14.84 107.481 15.0893 106.926 15.588C106.382 16.0867 106.07 16.778 105.991 17.662H111.873ZM114.935 18.308C114.935 17.356 115.128 16.523 115.513 15.809C115.898 15.0837 116.425 14.5227 117.094 14.126C117.774 13.7293 118.533 13.531 119.372 13.531C120.097 13.531 120.772 13.701 121.395 14.041C122.018 14.3697 122.494 14.806 122.823 15.35V10.42H124.387V23H122.823V21.249C122.517 21.8043 122.064 22.2633 121.463 22.626C120.862 22.9773 120.16 23.153 119.355 23.153C118.528 23.153 117.774 22.949 117.094 22.541C116.425 22.133 115.898 21.5607 115.513 20.824C115.128 20.0873 114.935 19.2487 114.935 18.308ZM122.823 18.325C122.823 17.6223 122.681 17.0103 122.398 16.489C122.115 15.9677 121.729 15.571 121.242 15.299C120.766 15.0157 120.239 14.874 119.661 14.874C119.083 14.874 118.556 15.01 118.08 15.282C117.604 15.554 117.224 15.9507 116.941 16.472C116.658 16.9933 116.516 17.6053 116.516 18.308C116.516 19.022 116.658 19.6453 116.941 20.178C117.224 20.6993 117.604 21.1017 118.08 21.385C118.556 21.657 119.083 21.793 119.661 21.793C120.239 21.793 120.766 21.657 121.242 21.385C121.729 21.1017 122.115 20.6993 122.398 20.178C122.681 19.6453 122.823 19.0277 122.823 18.325Z" fill="#FF2715"/>
</svg>
