<svg width="469" height="635" viewBox="0 0 469 635" fill="none" xmlns="http://www.w3.org/2000/svg">
<g opacity="0.04" clip-path="url(#clip0_8_1530)">
<path d="M450.611 156.575H310.474L217.587 332.02H301.078L108.592 572.245L119.062 537.831L167.519 362.386H110.606L169.533 156.575H18.3895C8.18804 156.575 0 164.808 0 175.065V433.103C0 474.4 7.65112 510.299 22.8191 540.8C37.9871 571.3 59.3297 594.648 86.9811 610.843C114.498 626.903 146.311 635 182.285 635C212.62 635 240.406 628.657 265.373 615.971C276.38 610.438 286.313 604.095 295.172 596.942C307.118 587.36 324.837 596.132 324.837 611.517C324.837 621.774 333.025 630.007 343.226 630.007H450.611C460.812 630.007 469 621.774 469 611.517V175.065C469 164.808 460.812 156.575 450.611 156.575Z" fill="#F2665D"/>
<path d="M187.33 120.834C175.033 107.157 168.611 87.6193 169.431 68.3822C170.251 49.145 176.946 33.5148 189.516 20.5898C202.905 6.91336 220.258 0 241.435 0C262.613 0 279.145 6.91336 292.535 20.5898C305.241 33.6651 311.936 49.7461 312.619 69.1336C313.302 88.5211 306.608 107.758 294.174 121.284C280.511 136.163 262.886 143.527 241.435 143.527C219.984 143.527 201.129 136.013 187.466 120.683L187.33 120.834Z" fill="#F2665D"/>
</g>
<defs>
<clipPath id="clip0_8_1530">
<rect width="469" height="635" fill="white"/>
</clipPath>
</defs>
</svg>
