<svg width="146" height="34" viewBox="0 0 146 34" fill="none" xmlns="http://www.w3.org/2000/svg">
<path d="M0 17C0 7.61116 7.61116 0 17 0H129C138.389 0 146 7.61116 146 17C146 26.3888 138.389 34 129 34H17C7.61116 34 0 26.3888 0 17Z" fill="#E1FCEA"/>
<path d="M31.4267 12.8233L31.4268 12.8234C31.4736 12.8702 31.5 12.9337 31.5 13C31.5 13 31.5 13.0001 31.5 13.0001V17H31V14.5V14H30.5L26.0005 14C26.0004 14 26.0002 14 26.0001 14C25.735 13.9996 25.4808 13.8941 25.2933 13.7067C25.1059 13.5192 25.0004 13.265 25 12.9999C25 12.9998 25 12.9996 25 12.9995L25 8.5V8H24.5H18.5H18V8.5V26.5V27H18.5H24V27.5H18.5006C18.2353 27.4997 17.981 27.3942 17.7934 27.2066C17.6059 27.0191 17.5004 26.7649 17.5 26.4997V8.50028C17.5003 8.23509 17.6058 7.98085 17.7933 7.79333C17.9809 7.60581 18.2351 7.50032 18.5003 7.5H25.9999C25.9999 7.5 26 7.5 26 7.5C26.0663 7.50004 26.1298 7.52639 26.1766 7.57325L26.1767 7.5733L31.4267 12.8233ZM26.3536 8.45702L25.5 7.60347V8.81058V13V13.5H26H30.1894H31.3965L30.543 12.6464L26.3536 8.45702Z" fill="#3ACE68" stroke="#3ACE68"/>
<path d="M29 25.9425L27.0575 24L26 25.0575L29 28.0575L35 22.0575L33.9425 21L29 25.9425Z" fill="#52BB77"/>
<path d="M49.066 23.119C48.284 23.119 47.5813 22.983 46.958 22.711C46.346 22.4277 45.8643 22.0423 45.513 21.555C45.1617 21.0563 44.9803 20.484 44.969 19.838H46.618C46.6747 20.3933 46.9013 20.8637 47.298 21.249C47.706 21.623 48.2953 21.81 49.066 21.81C49.8027 21.81 50.3807 21.6287 50.8 21.266C51.2307 20.892 51.446 20.416 51.446 19.838C51.446 19.3847 51.3213 19.0163 51.072 18.733C50.8227 18.4497 50.511 18.2343 50.137 18.087C49.763 17.9397 49.2587 17.781 48.624 17.611C47.842 17.407 47.213 17.203 46.737 16.999C46.2723 16.795 45.87 16.4777 45.53 16.047C45.2013 15.605 45.037 15.0157 45.037 14.279C45.037 13.633 45.2013 13.0607 45.53 12.562C45.8587 12.0633 46.3177 11.678 46.907 11.406C47.5077 11.134 48.1933 10.998 48.964 10.998C50.0747 10.998 50.9813 11.2757 51.684 11.831C52.398 12.3863 52.8003 13.123 52.891 14.041H51.191C51.1343 13.5877 50.8963 13.191 50.477 12.851C50.0577 12.4997 49.5023 12.324 48.811 12.324C48.165 12.324 47.638 12.494 47.23 12.834C46.822 13.1627 46.618 13.6273 46.618 14.228C46.618 14.6587 46.737 15.01 46.975 15.282C47.2243 15.554 47.5247 15.7637 47.876 15.911C48.2387 16.047 48.743 16.2057 49.389 16.387C50.171 16.6023 50.8 16.8177 51.276 17.033C51.752 17.237 52.16 17.56 52.5 18.002C52.84 18.4327 53.01 19.022 53.01 19.77C53.01 20.348 52.857 20.892 52.551 21.402C52.245 21.912 51.7917 22.3257 51.191 22.643C50.5903 22.9603 49.882 23.119 49.066 23.119ZM59.9105 13.514C60.6132 13.514 61.2479 13.667 61.8145 13.973C62.3812 14.2677 62.8232 14.7153 63.1405 15.316C63.4692 15.9167 63.6335 16.6477 63.6335 17.509V23H62.1035V17.73C62.1035 16.8007 61.8712 16.0923 61.4065 15.605C60.9419 15.1063 60.3072 14.857 59.5025 14.857C58.6865 14.857 58.0349 15.112 57.5475 15.622C57.0715 16.132 56.8335 16.8743 56.8335 17.849V23H55.2865V10.42H56.8335V15.01C57.1395 14.534 57.5589 14.1657 58.0915 13.905C58.6355 13.6443 59.2419 13.514 59.9105 13.514ZM70.2236 23.153C69.3509 23.153 68.5576 22.9547 67.8436 22.558C67.1409 22.1613 66.5856 21.6003 66.1776 20.875C65.7809 20.1383 65.5826 19.2883 65.5826 18.325C65.5826 17.373 65.7866 16.5343 66.1946 15.809C66.6139 15.0723 67.1806 14.5113 67.8946 14.126C68.6086 13.7293 69.4076 13.531 70.2916 13.531C71.1756 13.531 71.9746 13.7293 72.6886 14.126C73.4026 14.5113 73.9636 15.0667 74.3716 15.792C74.7909 16.5173 75.0006 17.3617 75.0006 18.325C75.0006 19.2883 74.7852 20.1383 74.3546 20.875C73.9352 21.6003 73.3629 22.1613 72.6376 22.558C71.9122 22.9547 71.1076 23.153 70.2236 23.153ZM70.2236 21.793C70.7789 21.793 71.3002 21.6627 71.7876 21.402C72.2749 21.1413 72.6659 20.7503 72.9606 20.229C73.2666 19.7077 73.4196 19.073 73.4196 18.325C73.4196 17.577 73.2722 16.9423 72.9776 16.421C72.6829 15.8997 72.2976 15.5143 71.8216 15.265C71.3456 15.0043 70.8299 14.874 70.2746 14.874C69.7079 14.874 69.1866 15.0043 68.7106 15.265C68.2459 15.5143 67.8719 15.8997 67.5886 16.421C67.3052 16.9423 67.1636 17.577 67.1636 18.325C67.1636 19.0843 67.2996 19.7247 67.5716 20.246C67.8549 20.7673 68.2289 21.1583 68.6936 21.419C69.1582 21.6683 69.6682 21.793 70.2236 21.793ZM78.5816 15.197C78.8536 14.6643 79.2389 14.2507 79.7376 13.956C80.2476 13.6613 80.8653 13.514 81.5906 13.514V15.112H81.1826C79.4486 15.112 78.5816 16.0527 78.5816 17.934V23H77.0346V13.684H78.5816V15.197ZM85.2634 14.959V20.45C85.2634 20.9033 85.3597 21.2263 85.5524 21.419C85.745 21.6003 86.0794 21.691 86.5554 21.691H87.6944V23H86.3004C85.439 23 84.793 22.8017 84.3624 22.405C83.9317 22.0083 83.7164 21.3567 83.7164 20.45V14.959H82.5094V13.684H83.7164V11.338H85.2634V13.684H87.6944V14.959H85.2634ZM91.1158 10.42V23H89.5688V10.42H91.1158ZM94.5514 12.171C94.2567 12.171 94.0074 12.069 93.8034 11.865C93.5994 11.661 93.4974 11.4117 93.4974 11.117C93.4974 10.8223 93.5994 10.573 93.8034 10.369C94.0074 10.165 94.2567 10.063 94.5514 10.063C94.8347 10.063 95.0727 10.165 95.2654 10.369C95.4694 10.573 95.5714 10.8223 95.5714 11.117C95.5714 11.4117 95.4694 11.661 95.2654 11.865C95.0727 12.069 94.8347 12.171 94.5514 12.171ZM95.2994 13.684V23H93.7524V13.684H95.2994ZM101.234 23.153C100.52 23.153 99.8796 23.034 99.313 22.796C98.7463 22.5467 98.2986 22.2067 97.97 21.776C97.6413 21.334 97.46 20.8297 97.426 20.263H99.024C99.0693 20.7277 99.2846 21.1073 99.67 21.402C100.067 21.6967 100.582 21.844 101.217 21.844C101.806 21.844 102.271 21.7137 102.611 21.453C102.951 21.1923 103.121 20.8637 103.121 20.467C103.121 20.059 102.94 19.7587 102.577 19.566C102.214 19.362 101.653 19.1637 100.894 18.971C100.203 18.7897 99.636 18.6083 99.194 18.427C98.7633 18.2343 98.3893 17.9567 98.072 17.594C97.766 17.22 97.613 16.7327 97.613 16.132C97.613 15.656 97.7546 15.2197 98.038 14.823C98.3213 14.4263 98.7236 14.1147 99.245 13.888C99.7663 13.65 100.361 13.531 101.03 13.531C102.061 13.531 102.894 13.7917 103.529 14.313C104.164 14.8343 104.504 15.5483 104.549 16.455H103.002C102.968 15.9677 102.77 15.5767 102.407 15.282C102.056 14.9873 101.58 14.84 100.979 14.84C100.424 14.84 99.9816 14.959 99.653 15.197C99.3243 15.435 99.16 15.7467 99.16 16.132C99.16 16.438 99.2563 16.693 99.449 16.897C99.653 17.0897 99.9023 17.2483 100.197 17.373C100.503 17.4863 100.922 17.6167 101.455 17.764C102.124 17.9453 102.668 18.1267 103.087 18.308C103.506 18.478 103.863 18.7387 104.158 19.09C104.464 19.4413 104.623 19.9003 104.634 20.467C104.634 20.977 104.492 21.436 104.209 21.844C103.926 22.252 103.523 22.575 103.002 22.813C102.492 23.0397 101.903 23.153 101.234 23.153ZM108.705 14.959V20.45C108.705 20.9033 108.801 21.2263 108.994 21.419C109.186 21.6003 109.521 21.691 109.997 21.691H111.136V23H109.742C108.88 23 108.234 22.8017 107.804 22.405C107.373 22.0083 107.158 21.3567 107.158 20.45V14.959H105.951V13.684H107.158V11.338H108.705V13.684H111.136V14.959H108.705ZM121.51 17.985C121.51 18.2797 121.493 18.5913 121.459 18.92H114.013C114.07 19.838 114.382 20.5577 114.948 21.079C115.526 21.589 116.223 21.844 117.039 21.844C117.708 21.844 118.263 21.691 118.705 21.385C119.159 21.0677 119.476 20.6483 119.657 20.127H121.323C121.074 21.0223 120.575 21.7533 119.827 22.32C119.079 22.8753 118.15 23.153 117.039 23.153C116.155 23.153 115.362 22.9547 114.659 22.558C113.968 22.1613 113.424 21.6003 113.027 20.875C112.631 20.1383 112.432 19.2883 112.432 18.325C112.432 17.3617 112.625 16.5173 113.01 15.792C113.396 15.0667 113.934 14.5113 114.625 14.126C115.328 13.7293 116.133 13.531 117.039 13.531C117.923 13.531 118.705 13.7237 119.385 14.109C120.065 14.4943 120.587 15.027 120.949 15.707C121.323 16.3757 121.51 17.135 121.51 17.985ZM119.912 17.662C119.912 17.0727 119.782 16.5683 119.521 16.149C119.261 15.7183 118.904 15.3953 118.45 15.18C118.008 14.9533 117.515 14.84 116.971 14.84C116.189 14.84 115.521 15.0893 114.965 15.588C114.421 16.0867 114.11 16.778 114.03 17.662H119.912ZM122.974 18.308C122.974 17.356 123.167 16.523 123.552 15.809C123.937 15.0837 124.464 14.5227 125.133 14.126C125.813 13.7293 126.572 13.531 127.411 13.531C128.136 13.531 128.811 13.701 129.434 14.041C130.057 14.3697 130.533 14.806 130.862 15.35V10.42H132.426V23H130.862V21.249C130.556 21.8043 130.103 22.2633 129.502 22.626C128.901 22.9773 128.199 23.153 127.394 23.153C126.567 23.153 125.813 22.949 125.133 22.541C124.464 22.133 123.937 21.5607 123.552 20.824C123.167 20.0873 122.974 19.2487 122.974 18.308ZM130.862 18.325C130.862 17.6223 130.72 17.0103 130.437 16.489C130.154 15.9677 129.768 15.571 129.281 15.299C128.805 15.0157 128.278 14.874 127.7 14.874C127.122 14.874 126.595 15.01 126.119 15.282C125.643 15.554 125.263 15.9507 124.98 16.472C124.697 16.9933 124.555 17.6053 124.555 18.308C124.555 19.022 124.697 19.6453 124.98 20.178C125.263 20.6993 125.643 21.1017 126.119 21.385C126.595 21.657 127.122 21.793 127.7 21.793C128.278 21.793 128.805 21.657 129.281 21.385C129.768 21.1017 130.154 20.6993 130.437 20.178C130.72 19.6453 130.862 19.0277 130.862 18.325Z" fill="#3ACE68"/>
</svg>
