<svg width="14" height="18" viewBox="0 0 14 18" fill="none" xmlns="http://www.w3.org/2000/svg">
<path d="M9.01037 17.6671L5.63936 11.5491C5.52135 11.3386 5.30071 11.2052 5.05956 11.2052C4.69527 11.2052 4.39768 11.5029 4.39768 11.8673V17.3438C4.39768 17.7082 4.10009 18.0059 3.73579 18.0059H0.672635C0.30834 18.0059 0.0107422 17.7082 0.0107422 17.3438V0.652583C0.0107422 0.288169 0.30834 -0.00952148 0.672635 -0.00952148H7.37361C8.79487 -0.00952148 10.0006 0.236843 11.0063 0.734704C12.0068 1.23257 12.7559 1.91007 13.2536 2.77748C13.7513 3.63975 13.9976 4.60468 13.9976 5.66199C13.9976 6.85788 13.659 7.9306 12.9868 8.86986C12.4378 9.62948 11.6836 10.2146 10.719 10.6149C10.3495 10.7689 10.1956 11.2103 10.3957 11.5542L13.5718 17.0101C13.8283 17.4516 13.5102 18.0059 13.0022 18.0059H9.59016C9.34901 18.0059 9.12838 17.8724 9.01037 17.662V17.6671ZM4.4028 7.443C4.4028 7.80741 4.7004 8.1051 5.0647 8.1051H7.12219C7.92774 8.1051 8.52806 7.91006 8.92827 7.51486C9.32849 7.11965 9.53372 6.56533 9.53372 5.84676C9.53372 5.1282 9.33362 4.62521 8.92827 4.23C8.52806 3.83479 7.92261 3.63975 7.12219 3.63975H5.0647C4.7004 3.63975 4.4028 3.93744 4.4028 4.30185V7.443Z" fill="white"/>
</svg>
