<svg width="17" height="26" viewBox="0 0 17 26" fill="none" xmlns="http://www.w3.org/2000/svg">
<path d="M6.53301 7.51516V7.88575C6.53301 9.23469 7.6296 10.3316 8.9781 10.3316H12.5716C13.9202 10.3316 15.0167 11.4286 15.0167 12.7775C15.0167 14.1265 13.9202 15.2234 12.5716 15.2234H8.9781C7.6296 15.2234 6.53301 16.3204 6.53301 17.6693V18.4846C6.53301 19.8336 7.6296 20.9305 8.9781 20.9305H13.6831C15.0316 20.9305 16.1281 22.0274 16.1281 23.3764V23.5617C16.1281 24.9106 15.0316 26.0076 13.6831 26.0076H2.64309C1.29458 26.0076 0.197998 24.9106 0.197998 23.5617V2.43808C0.197998 1.08913 1.29458 -0.0078125 2.64309 -0.0078125H13.6831C15.0316 -0.0078125 16.1281 1.08913 16.1281 2.43808V2.62337C16.1281 3.97232 15.0316 5.06927 13.6831 5.06927H8.9781C7.6296 5.06927 6.53301 6.16621 6.53301 7.51516Z" fill="white"/>
</svg>
