<svg width="15" height="22" viewBox="0 0 15 22" fill="none" xmlns="http://www.w3.org/2000/svg">
<path d="M14.775 5.97527L9.525 0.725266C9.45901 0.651977 9.37788 0.593899 9.28724 0.55505C9.19659 0.516201 9.09858 0.497509 9 0.500266H1.5C1.10253 0.501434 0.721681 0.659844 0.440629 0.940896C0.159577 1.22195 0.00116737 1.6028 0 2.00027V20.0003C0.00116737 20.3977 0.159577 20.7786 0.440629 21.0596C0.721681 21.3407 1.10253 21.4991 1.5 21.5003H13.5C13.8975 21.4991 14.2783 21.3407 14.5594 21.0596C14.8404 20.7786 14.9988 20.3977 15 20.0003V6.50027C15.0028 6.40168 14.9841 6.30368 14.9452 6.21303C14.9064 6.12238 14.8483 6.04126 14.775 5.97527ZM9 2.30027L13.2 6.50027H9V2.30027ZM13.5 20.0003H1.5V2.00027H7.5V6.50027C7.50117 6.89773 7.65958 7.27858 7.94063 7.55964C8.22168 7.84069 8.60254 7.9991 9 8.00027H13.5V20.0003Z" fill="#303030"/>
</svg>
