<svg width="42" height="42" viewBox="0 0 42 42" fill="none" xmlns="http://www.w3.org/2000/svg">
<path d="M21 21.5H21.0006C21.8289 21.4991 22.6231 21.1696 23.2088 20.5838C23.7946 19.9981 24.1241 19.2039 24.125 18.3756V18.375C24.125 17.7569 23.9417 17.1527 23.5983 16.6388C23.255 16.1249 22.7669 15.7244 22.1959 15.4879C21.6249 15.2514 20.9965 15.1895 20.3903 15.31C19.7842 15.4306 19.2273 15.7283 18.7903 16.1653C18.3533 16.6023 18.0556 17.1592 17.935 17.7653C17.8145 18.3715 17.8764 18.9999 18.1129 19.5709C18.3494 20.1419 18.7499 20.63 19.2638 20.9733C19.7777 21.3167 20.3819 21.5 21 21.5ZM15.25 30.0794V30.3665L15.4979 30.5112C17.1676 31.4862 19.0664 32 21 32C22.9336 32 24.8324 31.4862 26.5021 30.5112L26.75 30.3665V30.0794V28.875V28.8744C26.7491 28.0461 26.4196 27.2519 25.8339 26.6661C25.2481 26.0804 24.4539 25.7509 23.6256 25.75H23.625H18.375H18.3745C17.5461 25.7509 16.7519 26.0804 16.1661 26.6661C15.5804 27.2519 15.2509 28.0461 15.25 28.8744V28.875V30.0794ZM27.4935 28.8176L27.5101 29.912L28.3265 29.183C29.9888 27.6987 31.161 25.7445 31.688 23.5791C32.215 21.4138 32.0719 19.1394 31.2775 17.0572C30.4832 14.975 29.0752 13.1832 27.2399 11.9191C25.4046 10.6549 23.2286 9.97797 21 9.97797C18.7714 9.97797 16.5954 10.6549 14.7601 11.9191C12.9248 13.1832 11.5168 14.975 10.7225 17.0572C9.92814 19.1394 9.78499 21.4138 10.312 23.5791C10.839 25.7445 12.0112 27.6987 13.6735 29.183L14.4899 29.912L14.5065 28.8176C14.5219 27.801 14.9361 26.8311 15.6599 26.117C16.3837 25.4029 17.3591 25.0017 18.3759 25H23.6242C24.6409 25.0017 25.6163 25.4029 26.3401 26.117C27.0639 26.8311 27.4781 27.801 27.4935 28.8176ZM18.8472 15.1531C19.4844 14.7273 20.2336 14.5 21 14.5C22.0277 14.5 23.0133 14.9083 23.74 15.635C24.4667 16.3617 24.875 17.3473 24.875 18.375C24.875 19.1414 24.6477 19.8906 24.2219 20.5278C23.7962 21.1651 23.191 21.6617 22.4829 21.955C21.7748 22.2483 20.9957 22.3251 20.244 22.1755C19.4923 22.026 18.8019 21.657 18.26 21.115C17.718 20.5731 17.349 19.8826 17.1995 19.131C17.0499 18.3793 17.1267 17.6002 17.42 16.8921C17.7133 16.184 18.2099 15.5788 18.8472 15.1531ZM14.4721 11.2302C16.4043 9.93918 18.6759 9.25005 20.9997 9.25C24.115 9.25359 27.1016 10.4927 29.3045 12.6955C31.5074 14.8984 32.7465 17.8852 32.75 21.0006C32.7499 23.3243 32.0608 25.5958 30.7698 27.5279C29.4787 29.4602 27.6436 30.9662 25.4965 31.8556C23.3495 32.7449 20.987 32.9776 18.7077 32.5242C16.4284 32.0708 14.3348 30.9518 12.6915 29.3085C11.0482 27.6652 9.92915 25.5716 9.47578 23.2923C9.0224 21.013 9.25509 18.6505 10.1444 16.5035C11.0338 14.3564 12.5398 12.5213 14.4721 11.2302Z" fill="#303030" stroke="#303030"/>
</svg>
