<svg width="17" height="26" viewBox="0 0 17 26" fill="none" xmlns="http://www.w3.org/2000/svg">
<path d="M6.53325 7.51516V7.88575C6.53325 9.23469 7.62984 10.3316 8.97835 10.3316H12.5719C13.9204 10.3316 15.017 11.4286 15.017 12.7775C15.017 14.1265 13.9204 15.2234 12.5719 15.2234H8.97835C7.62984 15.2234 6.53325 16.3204 6.53325 17.6693V18.4846C6.53325 19.8336 7.62984 20.9305 8.97835 20.9305H13.6833C15.0318 20.9305 16.1284 22.0274 16.1284 23.3764V23.5617C16.1284 24.9106 15.0318 26.0076 13.6833 26.0076H2.64333C1.29483 26.0076 0.198242 24.9106 0.198242 23.5617V2.43808C0.198242 1.08913 1.29483 -0.0078125 2.64333 -0.0078125H13.6833C15.0318 -0.0078125 16.1284 1.08913 16.1284 2.43808V2.62337C16.1284 3.97232 15.0318 5.06927 13.6833 5.06927H8.97835C7.62984 5.06927 6.53325 6.16621 6.53325 7.51516Z" fill="white"/>
</svg>
