<svg width="23" height="28" viewBox="0 0 23 28" fill="none" xmlns="http://www.w3.org/2000/svg">
<path d="M3.83776 0.869141C5.585 0.869141 6.99909 2.28369 6.99909 4.03151V16.4218C6.99909 17.977 7.38408 19.1768 8.14665 20.0137C8.90922 20.8506 10.0346 21.2727 11.5153 21.2727C12.996 21.2727 14.1287 20.8506 14.9209 20.0137C15.7131 19.1768 16.1055 17.977 16.1055 16.4218V4.03891C16.1055 2.29109 17.5196 0.876547 19.2668 0.876547C21.0141 0.876547 22.4282 2.29109 22.4282 4.03891V16.3921C22.4282 18.7102 21.9321 20.6728 20.9475 22.2799C19.9628 23.887 18.6375 25.0942 16.9643 25.9089C15.2985 26.7235 13.4402 27.1308 11.3968 27.1308C9.35344 27.1308 7.51735 26.7309 5.90336 25.9311C4.28938 25.1312 3.00855 23.9166 2.0683 22.3021C1.12804 20.6876 0.661621 18.7176 0.661621 16.3921V4.03891C0.661621 2.29109 2.07571 0.876547 3.82296 0.876547L3.83776 0.869141Z" fill="white"/>
</svg>
