<svg width="18" height="20" viewBox="0 0 18 20" fill="none" xmlns="http://www.w3.org/2000/svg">
<path d="M1.89376 5.22228C2.66799 3.81789 3.74675 2.72846 5.13004 1.94365C6.51332 1.15885 8.08759 0.771606 9.83734 0.771606C11.9897 0.771606 13.8272 1.33956 15.3602 2.47546C15.7369 2.75428 16.0828 3.0589 16.3976 3.38935C17.7396 4.79374 16.7331 7.12234 14.7924 7.12234H14.7872C14.1162 7.12234 13.4814 6.81771 13.0684 6.29107C12.7794 5.92448 12.4387 5.62501 12.0465 5.39267C11.3858 4.9951 10.6322 4.7989 9.78572 4.7989C8.42824 4.7989 7.32368 5.27392 6.48235 6.21878C5.64103 7.16365 5.21778 8.42863 5.21778 10.0137C5.21778 11.5988 5.64103 12.8638 6.48235 13.8087C7.32368 14.7536 8.42824 15.2286 9.78572 15.2286C10.627 15.2286 11.3806 15.0324 12.0465 14.6348C12.4387 14.3973 12.7794 14.0978 13.0684 13.7364C13.4814 13.2098 14.1162 12.9051 14.7872 12.9051C16.7331 12.9051 17.7396 15.2441 16.3873 16.6433C16.0776 16.9686 15.7318 17.2629 15.3602 17.5365C13.8272 18.6621 11.9897 19.2249 9.83734 19.2249C8.08242 19.2249 6.51332 18.8325 5.13004 18.0528C3.74675 17.268 2.66799 16.1838 1.89376 14.7845C1.11954 13.3905 0.732422 11.8002 0.732422 10.0086C0.732422 8.21694 1.11954 6.62151 1.89376 5.22228Z" fill="white"/>
</svg>
