<svg width="16" height="20" viewBox="0 0 16 20" fill="none" xmlns="http://www.w3.org/2000/svg">
<path d="M2.20665 0.867432C3.42164 0.867432 4.40496 1.85107 4.40496 3.06646V11.6823C4.40496 12.7638 4.67267 13.5981 5.20294 14.18C5.73321 14.762 6.51575 15.0555 7.5454 15.0555C8.57506 15.0555 9.36274 14.762 9.9136 14.18C10.4645 13.5981 10.7373 12.7638 10.7373 11.6823V3.07161C10.7373 1.85622 11.7206 0.872582 12.9356 0.872582C14.1506 0.872582 15.1339 1.85622 15.1339 3.07161V11.6617C15.1339 13.2736 14.789 14.6384 14.1043 15.7559C13.4196 16.8735 12.498 17.7129 11.3345 18.2794C10.1762 18.8459 8.88395 19.1291 7.46303 19.1291C6.04211 19.1291 4.76534 18.851 3.64302 18.2948C2.5207 17.7387 1.63004 16.8941 0.976214 15.7714C0.322384 14.6487 -0.00195312 13.2788 -0.00195312 11.6617V3.07161C-0.00195312 1.85622 0.981367 0.872582 2.19636 0.872582L2.20665 0.867432Z" fill="white"/>
</svg>
