<svg width="56" height="56" viewBox="0 0 56 56" fill="none" xmlns="http://www.w3.org/2000/svg">
<path d="M25.666 9.33333C25.666 9.95217 25.9118 10.5457 26.3494 10.9832C26.787 11.4208 27.3805 11.6667 27.9993 11.6667C28.6182 11.6667 29.2117 11.4208 29.6493 10.9832C30.0869 10.5457 30.3327 9.95217 30.3327 9.33333C30.3327 8.71449 30.0869 8.121 29.6493 7.68342C29.2117 7.24583 28.6182 7 27.9993 7C27.3805 7 26.787 7.24583 26.3494 7.68342C25.9118 8.121 25.666 8.71449 25.666 9.33333Z" stroke="#F2665D" stroke-width="1.5" stroke-linecap="round" stroke-linejoin="round"/>
<path d="M7 28.0001C7 28.6189 7.24583 29.2124 7.68342 29.65C8.121 30.0876 8.71449 30.3334 9.33333 30.3334C9.95217 30.3334 10.5457 30.0876 10.9832 29.65C11.4208 29.2124 11.6667 28.6189 11.6667 28.0001C11.6667 27.3812 11.4208 26.7878 10.9832 26.3502C10.5457 25.9126 9.95217 25.6667 9.33333 25.6667C8.71449 25.6667 8.121 25.9126 7.68342 26.3502C7.24583 26.7878 7 27.3812 7 28.0001Z" stroke="#F2665D" stroke-width="1.5" stroke-linecap="round" stroke-linejoin="round"/>
<path d="M44.334 28.0001C44.334 28.6189 44.5798 29.2124 45.0174 29.65C45.455 30.0876 46.0485 30.3334 46.6673 30.3334C47.2862 30.3334 47.8797 30.0876 48.3172 29.65C48.7548 29.2124 49.0007 28.6189 49.0007 28.0001C49.0007 27.3812 48.7548 26.7878 48.3172 26.3502C47.8797 25.9126 47.2862 25.6667 46.6673 25.6667C46.0485 25.6667 45.455 25.9126 45.0174 26.3502C44.5798 26.7878 44.334 27.3812 44.334 28.0001Z" stroke="#F2665D" stroke-width="1.5" stroke-linecap="round" stroke-linejoin="round"/>
<path d="M25.666 46.6666C25.666 47.2854 25.9118 47.8789 26.3494 48.3165C26.787 48.7541 27.3805 48.9999 27.9993 48.9999C28.6182 48.9999 29.2117 48.7541 29.6493 48.3165C30.0869 47.8789 30.3327 47.2854 30.3327 46.6666C30.3327 46.0477 30.0869 45.4543 29.6493 45.0167C29.2117 44.5791 28.6182 44.3333 27.9993 44.3333C27.3805 44.3333 26.787 44.5791 26.3494 45.0167C25.9118 45.4543 25.666 46.0477 25.666 46.6666Z" stroke="#F2665D" stroke-width="1.5" stroke-linecap="round" stroke-linejoin="round"/>
<path d="M12.834 12.8333L19.834 19.8333" stroke="#F2665D" stroke-width="1.5" stroke-linecap="round" stroke-linejoin="round"/>
<path d="M36.166 36.1667L43.166 43.1667" stroke="#F2665D" stroke-width="1.5" stroke-linecap="round" stroke-linejoin="round"/>
<path d="M43.166 12.8333L36.166 19.8333" stroke="#F2665D" stroke-width="1.5" stroke-linecap="round" stroke-linejoin="round"/>
<path d="M19.834 36.1667L12.834 43.1667" stroke="#F2665D" stroke-width="1.5" stroke-linecap="round" stroke-linejoin="round"/>
</svg>
