<svg width="56" height="56" viewBox="0 0 56 56" fill="none" xmlns="http://www.w3.org/2000/svg">
<path d="M18.6673 11.6667H14.0007C12.763 11.6667 11.576 12.1584 10.7008 13.0336C9.82565 13.9088 9.33398 15.0957 9.33398 16.3334V44.3334C9.33398 45.5711 9.82565 46.7581 10.7008 47.6332C11.576 48.5084 12.763 49.0001 14.0007 49.0001H27.2937" stroke="#F2665D" stroke-width="1.5" stroke-linecap="round" stroke-linejoin="round"/>
<path d="M41.9994 28.0001V16.3334C41.9994 15.0957 41.5077 13.9088 40.6325 13.0336C39.7573 12.1584 38.5704 11.6667 37.3327 11.6667H32.666" stroke="#F2665D" stroke-width="1.5" stroke-linecap="round" stroke-linejoin="round"/>
<path d="M18.666 11.6667C18.666 10.429 19.1577 9.242 20.0329 8.36683C20.908 7.49167 22.095 7 23.3327 7H27.9994C29.237 7 30.424 7.49167 31.2992 8.36683C32.1744 9.242 32.666 10.429 32.666 11.6667C32.666 12.9043 32.1744 14.0913 31.2992 14.9665C30.424 15.8417 29.237 16.3333 27.9994 16.3333H23.3327C22.095 16.3333 20.908 15.8417 20.0329 14.9665C19.1577 14.0913 18.666 12.9043 18.666 11.6667Z" stroke="#F2665D" stroke-width="1.5" stroke-linecap="round" stroke-linejoin="round"/>
<path d="M18.666 25.6667H27.9993" stroke="#F2665D" stroke-width="1.5" stroke-linecap="round" stroke-linejoin="round"/>
<path d="M18.666 35H25.666" stroke="#F2665D" stroke-width="1.5" stroke-linecap="round" stroke-linejoin="round"/>
<path d="M32.666 40.8333C32.666 42.3804 33.2806 43.8642 34.3746 44.9581C35.4685 46.0521 36.9523 46.6667 38.4994 46.6667C40.0464 46.6667 41.5302 46.0521 42.6241 44.9581C43.7181 43.8642 44.3327 42.3804 44.3327 40.8333C44.3327 39.2862 43.7181 37.8025 42.6241 36.7085C41.5302 35.6146 40.0464 35 38.4994 35C36.9523 35 35.4685 35.6146 34.3746 36.7085C33.2806 37.8025 32.666 39.2862 32.666 40.8333Z" stroke="#F2665D" stroke-width="1.5" stroke-linecap="round" stroke-linejoin="round"/>
<path d="M43.166 45.5L48.9993 51.3333" stroke="#F2665D" stroke-width="1.5" stroke-linecap="round" stroke-linejoin="round"/>
</svg>
