<svg width="146" height="37" viewBox="0 0 146 37" fill="none" xmlns="http://www.w3.org/2000/svg">
<rect x="31.3203" y="9.29321" width="114.153" height="27.41" rx="4" fill="#303030"/>
<circle cx="39.5153" cy="15.4882" r="2.195" fill="white"/>
<path d="M41.7128 20.3923V30.9942C41.7128 31.9365 40.7327 32.7032 39.5166 32.7032C38.3055 32.7032 37.3203 31.9405 37.3203 30.9942V20.3923C37.3203 19.4499 38.3004 18.6832 39.5166 18.6832C40.7276 18.6832 41.7128 19.4459 41.7128 20.3923Z" fill="white"/>
<path d="M53.7125 31.6671L50.3415 25.5491C50.2235 25.3386 50.0029 25.2052 49.7617 25.2052C49.3974 25.2052 49.0998 25.5029 49.0998 25.8673V31.3438C49.0998 31.7082 48.8022 32.0059 48.4379 32.0059H45.3748C45.0105 32.0059 44.7129 31.7082 44.7129 31.3438V14.6526C44.7129 14.2882 45.0105 13.9905 45.3748 13.9905H52.0758C53.497 13.9905 54.7028 14.2368 55.7084 14.7347C56.709 15.2326 57.4581 15.9101 57.9558 16.7775C58.4535 17.6398 58.6998 18.6047 58.6998 19.662C58.6998 20.8579 58.3611 21.9306 57.689 22.8699C57.14 23.6295 56.3857 24.2146 55.4211 24.6149C55.0517 24.7689 54.8978 25.2103 55.0979 25.5542L58.2739 31.0101C58.5304 31.4516 58.2123 32.0059 57.7044 32.0059H54.2923C54.0512 32.0059 53.8305 31.8724 53.7125 31.662V31.6671ZM49.105 21.443C49.105 21.8074 49.4025 22.1051 49.7668 22.1051H51.8243C52.6299 22.1051 53.2302 21.9101 53.6304 21.5149C54.0306 21.1196 54.2359 20.5653 54.2359 19.8468C54.2359 19.1282 54.0358 18.6252 53.6304 18.23C53.2302 17.8348 52.6248 17.6398 51.8243 17.6398H49.7668C49.4025 17.6398 49.105 17.9374 49.105 18.3019V21.443Z" fill="white"/>
<path d="M64.0861 19.2001V19.4567C64.0861 20.3908 64.8455 21.1504 65.7794 21.1504H68.2678C69.2017 21.1504 69.961 21.9101 69.961 22.8442C69.961 23.7783 69.2017 24.538 68.2678 24.538H65.7794C64.8455 24.538 64.0861 25.2976 64.0861 26.2317V26.7963C64.0861 27.7304 64.8455 28.49 65.7794 28.49H69.0375C69.9713 28.49 70.7307 29.2497 70.7307 30.1838V30.3121C70.7307 31.2462 69.9713 32.0059 69.0375 32.0059H61.3924C60.4586 32.0059 59.6992 31.2462 59.6992 30.3121V15.6842C59.6992 14.7501 60.4586 13.9905 61.3924 13.9905H69.0375C69.9713 13.9905 70.7307 14.7501 70.7307 15.6842V15.8125C70.7307 16.7467 69.9713 17.5063 69.0375 17.5063H65.7794C64.8455 17.5063 64.0861 18.2659 64.0861 19.2001Z" fill="white"/>
<path d="M72.8918 18.2223C73.666 16.8179 74.7448 15.7285 76.1281 14.9437C77.5114 14.1588 79.0856 13.7716 80.8354 13.7716C82.9877 13.7716 84.8252 14.3396 86.3582 15.4755C86.735 15.7543 87.0808 16.0589 87.3957 16.3893C88.7377 17.7937 87.7312 20.1223 85.7904 20.1223H85.7853C85.1143 20.1223 84.4794 19.8177 84.0665 19.2911C83.7774 18.9245 83.4368 18.625 83.0445 18.3927C82.3838 17.9951 81.6303 17.7989 80.7838 17.7989C79.4263 17.7989 78.3217 18.2739 77.4804 19.2188C76.6391 20.1636 76.2158 21.4286 76.2158 23.0137C76.2158 24.5988 76.6391 25.8638 77.4804 26.8087C78.3217 27.7536 79.4263 28.2286 80.7838 28.2286C81.6251 28.2286 82.3787 28.0324 83.0445 27.6348C83.4368 27.3973 83.7774 27.0978 84.0665 26.7364C84.4794 26.2098 85.1143 25.9051 85.7853 25.9051C87.7312 25.9051 88.7377 28.2441 87.3853 29.6433C87.0757 29.9686 86.7298 30.2629 86.3582 30.5365C84.8252 31.6621 82.9877 32.2249 80.8354 32.2249C79.0805 32.2249 77.5114 31.8325 76.1281 31.0528C74.7448 30.268 73.666 29.1838 72.8918 27.7845C72.1176 26.3905 71.7305 24.8002 71.7305 23.0086C71.7305 21.2169 72.1176 19.6215 72.8918 18.2223Z" fill="white"/>
<path d="M98.0094 31.6671L94.6384 25.5491C94.5204 25.3386 94.2997 25.2052 94.0586 25.2052C93.6943 25.2052 93.3967 25.5029 93.3967 25.8673V31.3438C93.3967 31.7082 93.0991 32.0059 92.7348 32.0059H89.6717C89.3074 32.0059 89.0098 31.7082 89.0098 31.3438V14.6526C89.0098 14.2882 89.3074 13.9905 89.6717 13.9905H96.3726C97.7939 13.9905 98.9997 14.2368 100.005 14.7347C101.006 15.2326 101.755 15.9101 102.253 16.7775C102.75 17.6398 102.997 18.6047 102.997 19.662C102.997 20.8579 102.658 21.9306 101.986 22.8699C101.437 23.6295 100.683 24.2146 99.718 24.6149C99.3486 24.7689 99.1946 25.2103 99.3947 25.5542L102.571 31.0101C102.827 31.4516 102.509 32.0059 102.001 32.0059H98.5892C98.348 32.0059 98.1274 31.8724 98.0094 31.662V31.6671ZM93.4018 21.443C93.4018 21.8074 93.6994 22.1051 94.0637 22.1051H96.1212C96.9268 22.1051 97.5271 21.9101 97.9273 21.5149C98.3275 21.1196 98.5327 20.5653 98.5327 19.8468C98.5327 19.1282 98.3326 18.6252 97.9273 18.23C97.5271 17.8348 96.9216 17.6398 96.1212 17.6398H94.0637C93.6994 17.6398 93.4018 17.9374 93.4018 18.3019V21.443Z" fill="white"/>
<path d="M106.205 13.8674C107.42 13.8674 108.403 14.8511 108.403 16.0665V24.6823C108.403 25.7638 108.671 26.5981 109.201 27.18C109.731 27.762 110.514 28.0555 111.543 28.0555C112.573 28.0555 113.361 27.762 113.912 27.18C114.463 26.5981 114.735 25.7638 114.735 24.6823V16.0716C114.735 14.8562 115.719 13.8726 116.934 13.8726C118.149 13.8726 119.132 14.8562 119.132 16.0716V24.6617C119.132 26.2736 118.787 27.6384 118.102 28.7559C117.418 29.8735 116.496 30.7129 115.333 31.2794C114.174 31.8459 112.882 32.1291 111.461 32.1291C110.04 32.1291 108.763 31.851 107.641 31.2948C106.519 30.7387 105.628 29.8941 104.974 28.7714C104.32 27.6487 103.996 26.2788 103.996 24.6617V16.0716C103.996 14.8562 104.979 13.8726 106.194 13.8726L106.205 13.8674Z" fill="white"/>
<path d="M124.525 16.184V29.8123C124.525 31.0237 123.545 32.0093 122.329 32.0093C121.118 32.0093 120.133 31.0289 120.133 29.8123V16.184C120.133 14.9726 121.113 13.9871 122.329 13.9871C123.54 13.9871 124.525 14.9675 124.525 16.184Z" fill="white"/>
<path d="M139.474 15.7445C139.474 16.7147 138.689 17.5053 137.714 17.5053H136.456C135.486 17.5053 134.696 18.2907 134.696 19.2661V30.2519C134.696 31.2221 133.911 32.0127 132.936 32.0127H132.063C131.093 32.0127 130.303 31.2273 130.303 30.2519V19.2661C130.303 18.2958 129.518 17.5053 128.543 17.5053H127.286C126.316 17.5053 125.525 16.7198 125.525 15.7445C125.525 14.7742 126.311 13.9836 127.286 13.9836H137.703C138.673 13.9836 139.464 14.7691 139.464 15.7445H139.474Z" fill="white"/>
<g clip-path="url(#clip0_580_1128)">
<path d="M25.8547 9.00854H17.8141L12.4845 19.024H17.275L6.23069 32.7376L6.83142 30.773L9.61174 20.7575H6.34622L9.72727 9.00854H1.05514C0.469805 9.00854 0 9.4785 0 10.064V24.7945C0 27.152 0.438998 29.2013 1.30929 30.9425C2.17959 32.6836 3.40416 34.0165 4.99071 34.941C6.56957 35.8578 8.39487 36.32 10.4589 36.32C12.1995 36.32 13.7938 35.9579 15.2263 35.2337C15.8578 34.9179 16.4278 34.5558 16.9361 34.1475C17.6215 33.6005 18.6382 34.1012 18.6382 34.9795C18.6382 35.565 19.108 36.035 19.6933 36.035H25.8547C26.44 36.035 26.9098 35.565 26.9098 34.9795V10.064C26.9098 9.4785 26.44 9.00854 25.8547 9.00854Z" fill="#F2665D"/>
<path d="M10.8082 6.96088C10.0987 6.17302 9.72822 5.04751 9.77551 3.93931C9.82281 2.8311 10.2091 1.93069 10.9343 1.18612C11.7069 0.398259 12.708 0 13.9299 0C15.1518 0 16.1056 0.398259 16.8781 1.18612C17.6113 1.93935 17.9975 2.86574 18.0369 3.98259C18.0764 5.09945 17.6901 6.20765 16.9727 6.98686C16.1844 7.84398 15.1675 8.26821 13.9299 8.26821C12.6922 8.26821 11.6044 7.83532 10.8161 6.95222L10.8082 6.96088Z" fill="#F2665D"/>
</g>
<defs>
<clipPath id="clip0_580_1128">
<rect width="26.9098" height="36.32" fill="white"/>
</clipPath>
</defs>
</svg>