<svg width="15" height="18" viewBox="0 0 15 18" fill="none" xmlns="http://www.w3.org/2000/svg">
<path d="M9.71349 17.6671L6.34248 11.5491C6.22447 11.3386 6.00384 11.2052 5.76269 11.2052C5.39839 11.2052 5.1008 11.5029 5.1008 11.8673V17.3438C5.1008 17.7082 4.80321 18.0059 4.43891 18.0059H1.37576C1.01146 18.0059 0.713867 17.7082 0.713867 17.3438V0.652583C0.713867 0.288169 1.01146 -0.00952148 1.37576 -0.00952148H8.07673C9.498 -0.00952148 10.7038 0.236843 11.7094 0.734704C12.71 1.23257 13.4591 1.91007 13.9568 2.77748C14.4545 3.63975 14.7007 4.60468 14.7007 5.66199C14.7007 6.85788 14.3621 7.9306 13.69 8.86986C13.1409 9.62948 12.3867 10.2146 11.4221 10.6149C11.0527 10.7689 10.8987 11.2103 11.0988 11.5542L14.2749 17.0101C14.5314 17.4516 14.2133 18.0059 13.7053 18.0059H10.2933C10.0521 18.0059 9.8315 17.8724 9.71349 17.662V17.6671ZM5.10593 7.443C5.10593 7.80741 5.40353 8.1051 5.76782 8.1051H7.82532C8.63087 8.1051 9.23119 7.91006 9.6314 7.51486C10.0316 7.11965 10.2368 6.56533 10.2368 5.84676C10.2368 5.1282 10.0367 4.62521 9.6314 4.23C9.23119 3.83479 8.62574 3.63975 7.82532 3.63975H5.76782C5.40353 3.63975 5.10593 3.93744 5.10593 4.30185V7.443Z" fill="white"/>
</svg>
