<svg width="12" height="18" viewBox="0 0 12 18" fill="none" xmlns="http://www.w3.org/2000/svg">
<path d="M5.0881 5.20006V5.45669C5.0881 6.39082 5.84748 7.15044 6.7813 7.15044H9.2698C10.2036 7.15044 10.963 7.91006 10.963 8.8442C10.963 9.77833 10.2036 10.538 9.2698 10.538H6.7813C5.84748 10.538 5.0881 11.2976 5.0881 12.2317V12.7963C5.0881 13.7304 5.84748 14.49 6.7813 14.49H10.0394C10.9733 14.49 11.7326 15.2497 11.7326 16.1838V16.3121C11.7326 17.2462 10.9733 18.0059 10.0394 18.0059H2.39437C1.46054 18.0059 0.701172 17.2462 0.701172 16.3121V1.68423C0.701172 0.750102 1.46054 -0.00952148 2.39437 -0.00952148H10.0394C10.9733 -0.00952148 11.7326 0.750102 11.7326 1.68423V1.81255C11.7326 2.74668 10.9733 3.5063 10.0394 3.5063H6.7813C5.84748 3.5063 5.0881 4.26593 5.0881 5.20006Z" fill="white"/>
</svg>
