<svg width="300" height="134" viewBox="0 0 300 134" fill="none" xmlns="http://www.w3.org/2000/svg">
<path d="M13.0607 0.93934C12.4749 0.353553 11.5251 0.353553 10.9393 0.93934L1.3934 10.4853C0.807611 11.0711 0.807611 12.0208 1.3934 12.6066C1.97919 13.1924 2.92893 13.1924 3.51472 12.6066L12 4.12132L20.4853 12.6066C21.0711 13.1924 22.0208 13.1924 22.6066 12.6066C23.1924 12.0208 23.1924 11.0711 22.6066 10.4853L13.0607 0.93934ZM53.1239 52.2626L52.8175 53.7309L53.1239 52.2626ZM136.651 50.6176L137.115 52.0441L136.651 50.6176ZM163.884 27.771L162.385 27.8265L163.884 27.771ZM121.847 18.8151L122.411 20.205L121.847 18.8151ZM94.2478 96.6764L95.3903 95.7044L94.2478 96.6764ZM147.252 120.711L146.967 122.184L147.252 120.711ZM298.249 133.451C299.077 133.437 299.737 132.754 299.722 131.925C299.708 131.097 299.024 130.437 298.196 130.452L298.249 133.451ZM10.5 2C10.5 28.4401 26.7397 48.2886 52.8175 53.7309L53.4303 50.7942C28.7275 45.6388 13.5 27.0034 13.5 2H10.5ZM52.8175 53.7309C80.4492 59.4975 109.721 60.9499 137.115 52.0441L136.187 49.1911C109.476 57.8749 80.7824 56.5024 53.4303 50.7942L52.8175 53.7309ZM137.115 52.0441C140.855 50.828 147.911 48.0622 154.01 44.0467C157.059 42.0388 159.935 39.6761 162.032 36.9823C164.134 34.2811 165.511 31.1675 165.383 27.7155L162.385 27.8265C162.479 30.3663 161.48 32.8064 159.664 35.1397C157.842 37.4806 155.257 39.6334 152.36 41.5411C146.565 45.3569 139.782 48.0225 136.187 49.1911L137.115 52.0441ZM165.383 27.7155C165.215 23.1639 162.604 20.0353 158.939 18.0253C155.335 16.0491 150.615 15.0816 145.814 14.7217C140.985 14.3597 135.938 14.6028 131.583 15.1436C127.256 15.681 123.497 16.5267 121.282 17.4252L122.411 20.205C124.266 19.452 127.724 18.6459 131.952 18.1207C136.153 17.5991 140.998 17.3691 145.589 17.7133C150.208 18.0595 154.436 18.9775 157.496 20.6558C160.495 22.3004 162.266 24.5955 162.385 27.8265L165.383 27.7155ZM121.282 17.4252C107.466 23.0319 95.0409 36.6483 88.7289 51.956C82.4132 67.2727 82.0756 84.6836 93.1053 97.6483L95.3903 95.7044C85.3487 83.9011 85.4374 67.8081 91.5023 53.0996C97.571 38.3821 109.481 25.4518 122.411 20.205L121.282 17.4252ZM93.1053 97.6483C107.347 114.389 126.985 118.324 146.967 122.184L147.536 119.238C127.415 115.351 108.854 111.531 95.3903 95.7044L93.1053 97.6483ZM146.967 122.184C197.211 131.89 247.323 134.345 298.249 133.451L298.196 130.452C247.397 131.343 197.509 128.892 147.536 119.238L146.967 122.184Z" fill="black"/>
</svg>
