<svg width="36" height="49" viewBox="0 0 36 49" fill="none" xmlns="http://www.w3.org/2000/svg">
<g clip-path="url(#clip0_279_334)">
<path d="M34.397 11.9849H23.6998L16.6093 25.3095H22.9825L8.28929 43.5539L9.0885 40.9402L12.7874 27.6156H8.44298L12.9411 11.9849H1.40375C0.625027 11.9849 0 12.6101 0 13.3891V32.9865C0 36.1229 0.584041 38.8493 1.74188 41.1657C2.89971 43.4821 4.52888 45.2553 6.63963 46.4853C8.74013 47.705 11.1685 48.32 13.9145 48.32C16.2302 48.32 18.3512 47.8383 20.257 46.8748C21.0972 46.4545 21.8554 45.9728 22.5317 45.4296C23.4436 44.7019 24.7961 45.3681 24.7961 46.5365C24.7961 47.3155 25.4212 47.9408 26.1999 47.9408H34.397C35.1757 47.9408 35.8007 47.3155 35.8007 46.5365V13.3891C35.8007 12.6101 35.1757 11.9849 34.397 11.9849Z" fill="#F2665D"/>
<path d="M14.3792 9.26073C13.4354 8.21256 12.9424 6.71518 13.0054 5.24084C13.0683 3.76649 13.5822 2.56859 14.547 1.57801C15.5748 0.529843 16.9067 0 18.5323 0C20.1579 0 21.4269 0.529843 22.4547 1.57801C23.43 2.5801 23.9439 3.81256 23.9963 5.29843C24.0488 6.78429 23.5349 8.25864 22.5805 9.29529C21.5318 10.4356 20.1789 11 18.5323 11C16.8858 11 15.4385 10.4241 14.3897 9.24921L14.3792 9.26073Z" fill="#F2665D"/>
</g>
<defs>
<clipPath id="clip0_279_334">
<rect width="35.8007" height="48.32" fill="white"/>
</clipPath>
</defs>
</svg>
