<svg width="27" height="37" viewBox="0 0 27 37" fill="none" xmlns="http://www.w3.org/2000/svg">
<g clip-path="url(#clip0_279_1397)">
<path d="M25.8547 9.00854H17.8141L12.4845 19.024H17.275L6.23069 32.7376L6.83142 30.773L9.61174 20.7575H6.34622L9.72727 9.00854H1.05514C0.469805 9.00854 0 9.4785 0 10.064V24.7945C0 27.152 0.438998 29.2013 1.30929 30.9425C2.17959 32.6836 3.40416 34.0165 4.99071 34.941C6.56957 35.8578 8.39487 36.32 10.4589 36.32C12.1995 36.32 13.7938 35.9579 15.2263 35.2337C15.8578 34.9179 16.4278 34.5558 16.9361 34.1475C17.6215 33.6005 18.6382 34.1012 18.6382 34.9795C18.6382 35.565 19.108 36.035 19.6933 36.035H25.8547C26.44 36.035 26.9098 35.565 26.9098 34.9795V10.064C26.9098 9.4785 26.44 9.00854 25.8547 9.00854Z" fill="#F2665D"/>
<path d="M10.8082 6.96088C10.0987 6.17302 9.72822 5.04751 9.77551 3.93931C9.82281 2.8311 10.2091 1.93069 10.9343 1.18612C11.7069 0.398259 12.708 0 13.9299 0C15.1518 0 16.1056 0.398259 16.8781 1.18612C17.6113 1.93935 17.9975 2.86574 18.0369 3.98259C18.0764 5.09945 17.6901 6.20765 16.9727 6.98686C16.1844 7.84398 15.1675 8.26821 13.9299 8.26821C12.6922 8.26821 11.6044 7.83532 10.8161 6.95222L10.8082 6.96088Z" fill="#F2665D"/>
</g>
<defs>
<clipPath id="clip0_279_1397">
<rect width="26.9098" height="36.32" fill="white"/>
</clipPath>
</defs>
</svg>
