<svg width="21" height="26" viewBox="0 0 21 26" fill="none" xmlns="http://www.w3.org/2000/svg">
<path d="M13.4599 25.5184L8.59195 16.6835C8.42153 16.3797 8.10293 16.187 7.75469 16.187C7.22862 16.187 6.79888 16.6168 6.79888 17.1431V25.0515C6.79888 25.5777 6.36914 26.0076 5.84308 26.0076H1.41968C0.893617 26.0076 0.463867 25.5777 0.463867 25.0515V0.948309C0.463867 0.422071 0.893617 -0.0078125 1.41968 -0.0078125H11.0963C13.1487 -0.0078125 14.8899 0.347954 16.3422 1.0669C17.787 1.78584 18.8687 2.7642 19.5875 4.01679C20.3062 5.26197 20.6618 6.65539 20.6618 8.18222C20.6618 9.90917 20.1728 11.4582 19.2022 12.8146C18.4094 13.9115 17.3202 14.7565 15.9272 15.3346C15.3938 15.557 15.1715 16.1944 15.4604 16.691L20.0468 24.5697C20.4173 25.2071 19.9579 26.0076 19.2244 26.0076H14.2972C13.9489 26.0076 13.6303 25.8149 13.4599 25.511V25.5184ZM6.80629 10.7541C6.80629 11.2803 7.23604 11.7102 7.7621 11.7102H10.7333C11.8965 11.7102 12.7634 11.4286 13.3414 10.8579C13.9193 10.2872 14.2157 9.48669 14.2157 8.44904C14.2157 7.41139 13.9267 6.68504 13.3414 6.11433C12.7634 5.54362 11.8891 5.26197 10.7333 5.26197H7.7621C7.23604 5.26197 6.80629 5.69186 6.80629 6.21809V10.7541Z" fill="white"/>
</svg>
