<svg width="156" height="113" viewBox="0 0 156 113" fill="none" xmlns="http://www.w3.org/2000/svg">
<path d="M0.359095 97.4816L9.14374 112.409L17.679 97.3376L0.359095 97.4816ZM23.0221 106.301L23.1234 104.804L23.0221 106.301ZM105.473 30.8923L106.947 30.6172L105.473 30.8923ZM83.5472 29.3836L82.1208 28.9196L83.5472 29.3836ZM95.887 45.0856L95.1279 46.3793L95.887 45.0856ZM155.059 1.4508C154.834 0.653635 154.005 0.190158 153.208 0.415596C152.411 0.641033 151.947 1.47001 152.172 2.26718L155.059 1.4508ZM11.6196 105.553C15.2609 106.802 19.0812 107.538 22.9209 107.798L23.1234 104.804C19.5283 104.561 15.9687 103.873 12.593 102.715L11.6196 105.553ZM22.9209 107.798C45.8527 109.349 69.2619 103.333 85.7665 90.2745C102.344 77.1579 111.867 56.9885 106.947 30.6172L103.998 31.1674C108.707 56.4046 99.6414 75.4707 83.905 87.9219C68.0957 100.431 45.4655 106.316 23.1234 104.804L22.9209 107.798ZM106.947 30.6172C105.984 25.453 104.35 21.6996 102.229 19.2641C100.07 16.7841 97.412 15.6923 94.6514 15.9452C91.9574 16.192 89.3919 17.6968 87.2528 19.9442C85.1033 22.2025 83.3013 25.2908 82.1208 28.9196L84.9736 29.8476C86.0364 26.5806 87.6287 23.9006 89.4258 22.0125C91.2333 20.1135 93.1666 19.0938 94.9251 18.9327C96.617 18.7777 98.3651 19.3944 99.9669 21.2341C101.607 23.1181 103.089 26.2954 103.998 31.1674L106.947 30.6172ZM82.1208 28.9196C80.652 33.4346 82.9071 37.1593 85.7936 39.9275C88.6737 42.6896 92.5386 44.8601 95.1279 46.3793L96.6461 43.7919C93.9475 42.2084 90.4394 40.2263 87.8701 37.7622C85.307 35.3042 84.0362 32.7293 84.9736 29.8476L82.1208 28.9196ZM95.1279 46.3793C111.243 55.8349 127.455 47.3414 139.611 36.2593L137.589 34.0424C125.612 44.9628 110.915 52.1645 96.6461 43.7919L95.1279 46.3793ZM139.611 36.2593C143.654 32.5727 148.328 26.969 151.593 20.7988C154.836 14.6691 156.829 7.7089 155.059 1.4508L152.172 2.26718C153.631 7.42367 152.047 13.5252 148.941 19.3958C145.856 25.2257 141.408 30.5607 137.589 34.0424L139.611 36.2593Z" fill="#303030"/>
</svg>
