<svg width="824" height="624" viewBox="0 0 824 624" fill="none" xmlns="http://www.w3.org/2000/svg">
<path d="M687.611 1H93.7429C82.802 1 73.9327 9.86931 73.9327 20.8102V380.743C73.9327 391.684 82.802 400.554 93.7429 400.554H687.611C698.552 400.554 707.421 391.684 707.421 380.743V20.8102C707.421 9.86931 698.552 1 687.611 1Z" stroke="#FEBD9D" stroke-width="1.81" stroke-linecap="round" stroke-linejoin="round"/>
<path d="M668.837 19.6302H112.535C101.594 19.6302 92.725 28.4996 92.725 39.4404V362.084C92.725 373.025 101.594 381.894 112.535 381.894H668.837C679.778 381.894 688.647 373.025 688.647 362.084V39.4404C688.647 28.4996 679.778 19.6302 668.837 19.6302Z" fill="white" fill-opacity="0.5" stroke="#FFCCB6" stroke-width="1.81" stroke-linecap="round" stroke-linejoin="round"/>
<path d="M148.403 282.683C127.471 285.203 124.893 271.467 117.275 251.934C109.656 232.4 110.996 214.061 105.825 184.025C99.7804 149.066 142.241 148.28 150.981 197.295C151.345 199.276 151.738 201.578 152.161 204.098C153.399 211.192 154.958 220.121 157.201 228.977C157.769 231.206 158.381 233.434 159.022 235.634C163.246 249.749 169.378 280.148 148.403 282.683Z" fill="#B25E47"/>
<path d="M157.26 228.977C129.089 237.717 124.909 214.673 125.215 205.249L152.191 204.098C153.459 211.148 155.017 220.077 157.26 228.977Z" fill="#914839"/>
<path d="M258.569 374.727C257.475 375.77 256.317 376.743 255.102 377.641C254.184 378.369 253.077 379.199 251.795 380.059L250.703 380.802L249.45 381.603C247.688 382.71 245.692 383.875 243.449 385.011C242.4 385.55 241.293 386.104 240.128 386.614C239.531 386.89 238.919 387.167 238.278 387.429L236.37 388.216C235.773 388.449 235.175 388.682 234.549 388.9C233.923 389.119 233.092 389.454 232.247 389.716C231.403 389.978 230.791 390.197 230.062 390.415C229.334 390.634 228.606 390.867 227.805 391.071L225.765 391.61L225.212 391.741L223.114 392.207C221.439 392.586 219.72 392.892 217.929 393.154C217.2 393.285 216.472 393.387 215.7 393.474C215.423 393.474 215.147 393.547 214.855 393.562C214.083 393.664 213.311 393.736 212.525 393.809V393.955C212.933 397.975 217.361 474.07 218.497 494.069L218.599 495.846C218.599 496.254 218.599 496.618 218.599 496.939C162.635 495.482 106.875 494.943 53.1548 495.089C52.0477 475.075 50.0522 438.091 48.1148 400.408C45.4201 347.605 42.8564 293.506 43.1477 282.989V282.829C43.7595 262.581 40.9191 247.418 58.2093 240.732C64.2397 238.401 72.7756 237.09 84.6617 236.974H86.9486H89.4686H92.1196C93.0227 236.974 93.8676 236.974 94.6833 236.887H96.475L98.1792 236.799H99.6358L101.996 236.668L103.656 236.551C104.53 236.551 105.317 236.435 106.045 236.377H106.497L107.327 236.304L108.507 236.173H108.915C109.716 236.071 110.371 235.969 110.852 235.881C111.333 235.794 111.551 235.75 111.813 235.692C112.095 235.639 112.369 235.551 112.629 235.43C116.445 245.976 127.079 265.262 144.908 262.829C162.737 260.397 161.237 240.528 157.697 231.832L158.032 232.123L158.542 232.531L159.664 233.347C159.824 233.463 159.999 233.595 160.188 233.711L160.785 234.104L161.368 234.469L162.169 234.949C162.854 235.328 163.626 235.692 164.339 236.013L165.097 236.318C165.607 236.493 166.116 236.624 166.553 236.741C167.095 236.85 167.647 236.903 168.199 236.901C168.374 236.917 168.549 236.917 168.724 236.901C168.913 236.901 169.088 236.901 169.263 236.814C172.045 236.114 179.867 234.745 190.573 238.94C197.405 241.635 205.416 246.602 214.054 255.488C219.647 261.616 224.381 268.476 228.125 275.881C243.522 304.212 254.956 347.357 258.569 374.727Z" fill="#C3DCF8"/>
<path d="M228.227 275.633C218.864 274.3 209.322 276.102 201.09 280.76C194.623 284.688 189.534 290.526 186.524 297.468C171.492 330.621 132.104 343.075 105.783 306.383C102.125 301.185 97.888 296.421 93.154 292.18C79.0101 279.77 62.5647 276.347 43.0459 283.135V282.974C43.6577 262.727 40.8173 247.564 58.1075 240.878C64.1379 238.547 72.6738 237.236 84.5599 237.12C109.76 236.858 112.571 235.241 112.571 235.241C116.387 245.787 127.021 265.072 144.85 262.64C162.679 260.207 161.179 240.339 157.639 231.643C158.032 231.978 164.922 237.702 169.292 236.61C172.074 235.911 179.896 234.542 190.603 238.737C197.434 241.431 205.446 246.398 214.083 255.284C219.699 261.394 224.457 268.24 228.227 275.633Z" fill="#D0E5F7"/>
<path d="M253.778 498.104C242.037 497.725 230.302 497.385 218.571 497.084V495.992L218.469 494.215L212.497 394.101V393.955L253.778 365.842C254.331 369.513 254.797 373.504 255.234 377.728C258.963 420.903 254.419 488.782 253.778 498.104Z" fill="#B25E47"/>
<path d="M258.567 374.727C258.567 374.727 242.093 391.348 212.436 393.926C210.804 346.105 206.216 308.247 201.118 280.76C197.607 261.751 193.834 247.68 190.703 238.736C197.534 241.431 205.546 246.398 214.184 255.284C219.777 261.412 224.51 268.272 228.255 275.677C243.52 304.212 254.955 347.357 258.567 374.727Z" fill="#FED81D"/>
<path d="M228.225 275.633C218.862 274.299 209.32 276.102 201.088 280.76C197.578 261.751 193.805 247.68 190.673 238.736C197.505 241.431 205.517 246.398 214.154 255.284C219.744 261.399 224.478 268.244 228.225 275.633Z" fill="#FFE05C"/>
<path d="M212.409 393.926C210.778 346.105 206.19 308.247 201.091 280.76" stroke="#F7AD2B" stroke-width="0.68" stroke-linecap="round" stroke-linejoin="round"/>
<path d="M111.727 229.997C102.987 233.434 102.987 237.28 102.987 241.46C102.987 245.641 110.824 268.452 126.147 284.649C129.133 287.81 133.576 268.306 137.961 267.17C142.345 266.034 146.278 268.044 148.317 267.753C150.356 267.461 155.761 262.101 159.271 264.533C162.782 266.966 170.21 279.1 171.667 279.42C173.124 279.741 173.269 250.681 169.919 240.47C169.04 237.584 167.393 234.993 165.152 232.973C162.912 230.953 160.164 229.582 157.203 229.006C157.203 229.006 159.621 250.098 152.556 256.362C137.873 269.413 122.768 252.968 111.727 229.997Z" fill="white"/>
<path d="M107.572 172.212C102.46 170.319 94.6228 175.125 95.6862 183.093C96.7495 191.061 108.534 193.668 114.36 189.051C111.442 183.725 109.164 178.073 107.572 172.212Z" fill="#B25E47"/>
<path d="M99.7049 183.618C99.2679 180.195 103.405 174.79 109.901 179.918" stroke="#934735" stroke-width="0.68" stroke-linecap="round" stroke-linejoin="round"/>
<path d="M107.282 185.861C100.508 185.686 102.504 178.388 108.622 179.029" stroke="#934735" stroke-width="0.68" stroke-linecap="round" stroke-linejoin="round"/>
<path d="M160.52 180.369L156.849 181.433L120.885 191.833C120.885 191.833 119.924 190.901 118.467 189.284C113.717 184.055 109.934 178.023 107.295 171.469C106.503 169.353 105.951 167.154 105.649 164.915C103.872 150.975 118.365 124.857 142.487 136.918C150.28 144.347 154.708 157.544 155.844 161.419L156.223 162.73C157.607 167.901 160.52 180.369 160.52 180.369Z" fill="#B25E47"/>
<path d="M134.753 175.432C134.753 179.152 133.275 182.72 130.645 185.35C128.014 187.981 124.446 189.459 120.726 189.459C119.95 189.46 119.176 189.402 118.41 189.284C113.659 184.055 109.876 178.023 107.237 171.47C108.189 168.227 110.277 165.437 113.12 163.61C115.962 161.784 119.368 161.043 122.712 161.525C126.057 162.006 129.115 163.677 131.327 166.232C133.539 168.786 134.755 172.053 134.753 175.432Z" fill="#A0503D"/>
<path d="M160.522 180.369L156.851 181.433C155.328 180.417 154.07 179.052 153.18 177.453C152.289 175.853 151.793 174.064 151.732 172.235C151.671 170.405 152.046 168.587 152.827 166.932C153.609 165.276 154.773 163.831 156.225 162.715C157.608 167.901 160.522 180.369 160.522 180.369Z" fill="#A0503D"/>
<path d="M134.171 161.375C134.168 161.745 134.275 162.107 134.479 162.416C134.682 162.725 134.974 162.966 135.315 163.109C135.656 163.252 136.032 163.29 136.395 163.219C136.758 163.147 137.092 162.969 137.353 162.708C137.615 162.446 137.793 162.112 137.864 161.749C137.936 161.386 137.898 161.01 137.755 160.669C137.612 160.328 137.371 160.037 137.062 159.833C136.753 159.629 136.39 159.522 136.02 159.525C135.778 159.525 135.537 159.573 135.313 159.666C135.088 159.759 134.884 159.895 134.712 160.067C134.541 160.238 134.404 160.442 134.311 160.667C134.218 160.891 134.171 161.132 134.171 161.375Z" fill="#683F1D"/>
<path d="M147.599 159.525C147.599 159.895 147.708 160.256 147.914 160.563C148.119 160.869 148.412 161.108 148.753 161.249C149.095 161.39 149.47 161.426 149.832 161.353C150.194 161.28 150.527 161.101 150.787 160.838C151.047 160.576 151.223 160.243 151.294 159.88C151.364 159.517 151.325 159.142 151.182 158.802C151.038 158.461 150.797 158.171 150.488 157.968C150.18 157.765 149.818 157.658 149.449 157.661C149.204 157.661 148.963 157.709 148.737 157.803C148.512 157.897 148.307 158.034 148.135 158.208C147.963 158.381 147.827 158.587 147.735 158.813C147.643 159.039 147.597 159.281 147.599 159.525Z" fill="#683F1D"/>
<path d="M163.565 202.889C155.713 223.02 136.165 217.178 127.44 211.527C118.715 205.875 114.33 191.367 108.154 181.447C100.07 168.527 100.332 155.84 104.629 146.488C107.32 140.159 112.381 135.135 118.729 132.49C132.393 127.494 142.502 136.86 142.502 136.86C142.225 145.6 125.517 143.269 122.356 142.322C114.564 140.035 111.403 148.367 110.485 154.951C109.407 162.598 110.572 170.552 114.753 176.393C118.933 182.234 122.036 183.676 124.308 180.763C126.581 177.849 130.907 174.543 141.948 172.766C152.989 170.989 158.058 176.262 158.058 176.262C158.058 174.281 155.961 162.191 155.844 161.448C159.85 168.531 162.753 176.184 164.453 184.142C165.662 190.391 165.822 197.048 163.565 202.889Z" fill="#FFEACC"/>
<path d="M163.565 202.889C155.713 223.019 136.165 217.178 127.44 211.527C118.715 205.875 114.33 191.367 108.154 181.447C100.07 168.527 100.332 155.84 104.629 146.488C104.338 171.382 121.657 198.927 132.305 203.996C142.298 208.774 160.302 207.186 164.424 184.156C165.662 190.391 165.822 197.048 163.565 202.889Z" fill="#EDD6B7"/>
<path d="M136.02 178.578C140.493 178.849 144.978 178.849 149.451 178.578C149.451 178.578 147.659 184.506 142.167 183.996C140.682 183.918 139.267 183.34 138.151 182.357C137.035 181.373 136.284 180.041 136.02 178.578Z" fill="white" stroke="#934735" stroke-width="0.68" stroke-linecap="round" stroke-linejoin="round"/>
<path d="M134.155 147.857C135.058 151.426 126.071 157.733 123.828 155.14C121.585 152.548 132.786 142.497 134.155 147.857Z" fill="#FFEACC"/>
<path d="M142.227 146.299C141.95 148.863 152.759 151.019 152.904 149.081C153.05 147.144 142.737 141.667 142.227 146.299Z" fill="#FFEACC"/>
<path d="M140.404 150.523C139.355 154.208 138.685 159.001 142.225 160.719C145.765 162.438 150.557 161.768 151.038 168.789" stroke="#934735" stroke-width="0.68" stroke-linecap="round" stroke-linejoin="round"/>
<path d="M10.9393 390.765C8.91458 413.794 8.85631 461.994 32.7887 474.23C72.2197 494.375 80.5662 442.286 78.8328 390.765H10.9393Z" fill="#B25E47"/>
<path d="M93.5448 310.199C92.8019 340.657 79.6631 399.214 79.6631 399.214C67.442 400.219 56.9979 400.67 48.0688 400.67C10.4586 400.67 0 393.271 0 393.271C0 393.271 7.61818 334.569 18.3827 296.084C19.4606 292.195 20.5822 288.51 21.7184 285.116C31.638 255.707 44.165 243.5 58.1341 240.995C61.8131 240.36 65.5698 240.316 69.2627 240.864C84.7322 242.961 91.5346 267.083 93.1806 292.297C93.5885 298.197 93.6905 304.285 93.5448 310.199Z" fill="#FED81D"/>
<path d="M93.2088 292.18C79.065 279.77 62.6196 276.347 43.1008 283.135C34.3238 286.318 25.9993 290.632 18.3381 295.968C19.416 292.079 20.5376 288.393 21.6738 284.999C31.5934 255.59 44.1204 243.383 58.0895 240.878C61.7685 240.244 65.5252 240.199 69.2181 240.747C84.7604 242.844 91.5629 266.937 93.2088 292.18Z" fill="#FFE05C"/>
<path d="M93.544 310.199C92.8011 340.657 79.6623 399.214 79.6623 399.214" stroke="#F7AD2B" stroke-width="0.68" stroke-linecap="round" stroke-linejoin="round"/>
<path d="M233.426 340.788C233.426 340.788 237.796 343.992 233.15 352.761C233.15 352.761 238 357.233 231.504 364.735C232.388 366.467 232.624 368.458 232.17 370.349C231.716 372.239 230.602 373.906 229.027 375.048C222.464 380.79 215.493 386.047 208.168 390.779C204.76 392.877 200.07 395.95 192.67 401.194C189.757 403.263 186.377 405.681 182.473 408.477C173.734 414.843 162.343 423.306 147.34 434.697C86.5252 480.814 50.2114 487.135 29.0903 471.943C12.3099 459.882 33.4602 405.491 98.2365 383.729C131.579 372.513 152.044 366.643 164.571 363.118C169.655 361.661 173.442 360.642 176.225 359.797C179.924 358.661 181.92 357.874 183.012 356.956C186.916 353.606 188.722 349.673 190.616 344.954C192.51 340.234 196.967 322.551 198.074 317.715C199.181 312.879 207.557 310.082 206.158 337.423C206.158 337.423 230.12 329.615 234.461 328.494C238.801 327.372 240.52 336.884 233.426 340.788Z" fill="#B25E47"/>
<path d="M192.67 401.194C189.756 403.262 186.377 405.68 182.473 408.477C176.996 401.966 165.343 385.55 164.6 363.132C169.684 361.676 173.471 360.656 176.254 359.811C176.996 371.129 183.639 390.997 192.67 401.194Z" fill="#683F1D"/>
<path d="M174.504 393.926C180.594 393.926 185.531 388.989 185.531 382.899C185.531 376.809 180.594 371.872 174.504 371.872C168.414 371.872 163.478 376.809 163.478 382.899C163.478 388.989 168.414 393.926 174.504 393.926Z" fill="white" stroke="#683F1D" stroke-width="0.9" stroke-linecap="round" stroke-linejoin="round"/>
<path d="M190.675 344.968C192.554 340.234 197.026 322.565 198.133 317.729C199.24 312.893 207.616 310.096 206.218 337.437C206.218 337.437 230.179 329.63 234.52 328.508C238.861 327.387 240.521 336.884 233.427 340.788C233.427 340.788 237.797 343.992 233.151 352.761C233.151 352.761 238.001 357.233 231.505 364.735C232.389 366.467 232.626 368.458 232.171 370.348C231.717 372.239 230.603 373.906 229.028 375.048" stroke="#934735" stroke-width="0.68" stroke-linecap="round" stroke-linejoin="round"/>
<path d="M233.426 340.788C229.056 342.798 220.171 346.454 220.171 346.454" stroke="#934735" stroke-width="0.68" stroke-linecap="round" stroke-linejoin="round"/>
<path d="M233.15 352.761C230.499 354.495 224.308 357.597 224.308 357.597" stroke="#934735" stroke-width="0.68" stroke-linecap="round" stroke-linejoin="round"/>
<path d="M231.503 364.735C230.235 365.47 228.91 366.103 227.541 366.628" stroke="#934735" stroke-width="0.68" stroke-linecap="round" stroke-linejoin="round"/>
<path d="M206.216 337.438C202.152 338.632 198.933 339.841 198.933 339.841" stroke="#934735" stroke-width="0.68" stroke-linecap="round" stroke-linejoin="round"/>
<path d="M436.776 285.16C436.609 288.175 436.283 291.18 435.8 294.162C432.028 318.706 418.466 353.971 403.419 375.514C400.407 379.955 396.931 384.061 393.048 387.765C381.22 398.646 362.386 400.7 349.233 393.081C345.262 390.793 341.879 387.611 339.35 383.788C336.822 379.966 335.219 375.607 334.667 371.057C334.093 367.114 334.049 363.111 334.535 359.156C337.055 336.855 352.248 298.633 370.587 271.059C372.67 267.884 374.826 264.84 376.996 261.999C387.353 248.423 398.321 238.955 408.343 237.936C410.413 237.693 412.511 237.856 414.519 238.416C431.125 243.194 438.277 256.187 436.776 285.16Z" fill="#E85C53"/>
<path d="M406.392 298.546C401.359 315.858 399.339 333.906 400.42 351.902C401 359.845 402.001 367.751 403.421 375.587C400.408 380.027 396.932 384.134 393.049 387.838C381.222 398.719 362.387 400.772 349.234 393.154C345.263 390.866 341.88 387.684 339.352 383.861C336.823 380.038 335.22 375.68 334.668 371.13C346.321 383.628 358.556 386.323 368.17 383.162C382.125 378.675 390.879 362.084 385.504 345.115C376.05 315.283 397.376 298.226 407.557 293.259C407.295 294.919 406.887 296.682 406.392 298.546Z" fill="#E85C53"/>
<path d="M436.773 285.16C436.606 288.175 436.28 291.18 435.798 294.162C434.054 291.574 432.616 288.793 431.515 285.873C426.359 272.108 417.065 264.359 406.752 260.994C397.007 257.971 386.527 258.325 377.008 261.999C387.365 248.424 398.333 238.955 408.355 237.936C410.425 237.693 412.523 237.856 414.531 238.416C431.122 243.194 438.274 256.187 436.773 285.16Z" fill="#E85C53"/>
<path d="M553.134 527.965C514.271 521.396 475.481 516.137 438.337 512.598C427.383 511.568 416.318 510.597 405.141 509.684C407.238 484.383 411.958 442.854 420.639 432.76C421.099 432.121 421.69 431.588 422.374 431.199C423.058 430.809 423.817 430.571 424.601 430.502C429.525 430.414 441.848 430.007 456.501 429.468C489.028 428.244 533.033 426.423 533.033 426.423C533.659 428.87 534.286 431.303 534.897 433.706C534.897 433.808 534.897 433.925 534.999 434.041C542.704 465.006 548.757 496.358 553.134 527.965Z" fill="#83ADDF"/>
<path d="M517.432 438.936C521.991 449.132 534.183 461.091 538.305 463.815" stroke="white" stroke-width="0.9" stroke-miterlimit="10"/>
<path d="M476.341 261.504C457.58 263.791 453.53 248.758 453.414 227.273C453.414 222.218 453.589 216.8 453.865 211.148C454.016 207.832 454.371 204.529 454.929 201.257C461.323 164.652 491.621 169.08 493.18 190.653C493.777 198.839 499.545 258.678 476.341 261.504Z" fill="#B25E47"/>
<path d="M475.902 204.71C474.897 219.159 464.511 226.559 453.426 227.273C453.426 222.218 453.601 216.8 453.878 211.148C454.029 207.832 454.384 204.529 454.941 201.258C461.044 198.65 476.689 193.057 475.902 204.71Z" fill="#914839"/>
<path d="M548.574 347.052C547.584 350.355 546.8 353.716 546.229 357.117C546.069 358.049 545.923 358.981 545.777 359.899C540.024 395.747 539.31 429.002 538.917 432.454C538.523 435.906 506.419 434.712 482.531 433.546C473.223 433.08 461.191 433.211 449.844 433.299C432.073 433.43 415.977 433.473 414.622 430.954C413.763 429.322 411.462 419.781 408.956 407.531C408.563 405.623 408.17 403.671 407.762 401.704C407.558 400.714 407.368 399.694 407.179 398.675C406.99 397.655 406.728 396.329 406.509 395.164C406.291 393.999 406.028 392.659 405.795 391.391C405.285 388.595 404.776 385.769 404.339 382.958C403.902 380.146 403.406 377.393 402.984 374.684C401.638 366.834 400.715 358.918 400.216 350.97C399.326 332.96 401.538 314.932 406.757 297.672C406.888 297.22 407.019 296.783 407.121 296.346C407.325 295.589 407.514 294.89 407.689 294.089L407.951 292.909C408.038 292.515 408.111 292.122 408.184 291.729C408.257 291.336 408.344 290.942 408.403 290.563C408.461 290.185 408.534 289.777 408.592 289.384C408.723 288.626 408.825 287.854 408.927 287.111C409.131 285.247 409.291 283.411 409.364 281.62C409.364 281.372 409.364 281.125 409.364 280.891C409.364 279.624 409.364 278.372 409.364 277.133C409.23 271.446 408.592 265.782 407.456 260.207C405.62 250.696 403.159 243.544 403.771 240.252C404.062 238.635 405.737 237.659 408.679 237.236C408.883 237.236 409.102 237.236 409.291 237.163C416.574 236.319 430.471 238.372 449.436 242.291C449.82 238.035 450.497 233.81 451.461 229.647C451.648 228.998 452.046 228.429 452.592 228.031C453.138 227.633 453.8 227.428 454.476 227.448C456.544 227.258 459.341 228.016 462.021 228.263C466.58 228.686 482.094 225.86 490.076 221.65C491.679 220.713 493.451 220.1 495.291 219.844C499.122 219.48 500.447 222.495 500.942 226.617C500.942 226.792 500.942 226.982 500.942 227.156C500.942 227.331 500.942 227.535 500.942 227.739C500.942 227.943 500.942 228.496 501.03 228.89C501.117 229.283 501.03 229.472 501.103 229.778C501.175 230.084 501.103 230.579 501.175 230.987C501.248 231.395 501.175 231.963 501.175 232.444C501.175 232.925 501.175 233.376 501.175 233.901C501.175 234.134 501.175 234.381 501.175 234.629C501.175 234.877 501.175 235.037 501.175 235.241C501.175 235.445 501.175 235.794 501.175 236.071C501.175 236.348 501.175 236.77 501.175 237.105C501.175 237.44 501.175 237.79 501.175 238.125V238.78C501.175 241.694 501.175 244.024 501.175 244.024C515.596 238.562 537.329 232.983 553.804 243.107H553.891C559.253 246.503 563.687 251.178 566.797 256.711C567.612 258.09 568.384 259.547 569.113 261.081C583.009 290.316 557.955 315.181 548.574 347.052Z" fill="#E85C53"/>
<path d="M567.133 256.653C553.222 258.358 537.651 267.389 523.041 284.752C520.768 287.451 518.525 290.365 516.311 293.491C492.815 326.368 451.899 317.657 436.196 293.681C434.477 291.082 433.069 288.291 432.001 285.363C426.976 271.54 417.77 263.689 407.501 260.222C405.665 250.71 403.204 243.558 403.815 240.266C404.107 238.649 405.782 237.673 408.724 237.251C408.928 237.251 409.147 237.251 409.336 237.178C416.619 236.333 430.515 238.387 449.481 242.305C449.865 238.05 450.542 233.825 451.505 229.662C451.693 229.013 452.091 228.444 452.636 228.046C453.182 227.648 453.845 227.442 454.521 227.462C456.589 227.273 459.386 228.03 462.066 228.278C466.625 228.701 482.138 225.875 490.121 221.665C491.724 220.728 493.496 220.114 495.335 219.859C499.166 219.495 500.492 222.51 500.987 226.632C500.987 226.807 500.987 226.996 500.987 227.171C500.987 227.346 500.987 227.55 500.987 227.754C500.987 227.958 500.987 228.511 501.075 228.904C501.162 229.298 501.075 229.487 501.147 229.793C501.22 230.099 501.147 230.594 501.22 231.002C501.293 231.41 501.22 231.978 501.22 232.459C501.22 232.939 501.22 233.391 501.22 233.915C501.22 234.148 501.22 234.396 501.22 234.644C501.22 234.891 501.22 235.051 501.22 235.255C501.22 235.459 501.22 235.809 501.22 236.086C501.22 236.362 501.22 236.785 501.22 237.12C501.22 237.455 501.22 237.804 501.22 238.139V238.795C501.22 241.708 501.22 244.039 501.22 244.039C515.641 238.576 537.374 232.998 553.848 243.121H553.936C559.395 246.46 563.932 251.112 567.133 256.653Z" fill="#F2665D"/>
<path d="M408.871 280.891C408.824 285.017 408.415 289.131 407.647 293.185C407.297 294.919 406.89 296.681 406.394 298.473C401.361 315.785 399.341 333.833 400.422 351.829C401.002 359.772 402.004 367.678 403.423 375.514C403.874 378.209 404.37 380.976 404.879 383.773C406.424 392.163 408.157 400.772 409.803 408.346C412.439 420.553 414.843 430.079 415.717 431.653" stroke="#C0342B" stroke-width="0.68" stroke-linecap="round" stroke-linejoin="round"/>
<path d="M546.113 359.273C540.738 395.193 540.374 428.433 540.01 431.886C539.646 435.338 507.542 434.508 483.653 433.575C474.345 433.211 462.313 433.473 450.966 433.677C460.288 425.913 479.574 413.153 498.074 421.223C523.754 432.425 535.858 397.087 520.185 393.926C504.512 390.765 503.696 372.936 500.637 358.515L513.456 353.315L546.113 359.273Z" fill="#C0342B"/>
<path d="M448.548 242.64C448.389 245.42 448.389 248.207 448.548 250.987" stroke="#C0342B" stroke-width="0.68" stroke-linecap="round" stroke-linejoin="round"/>
<path d="M500.637 243.267C500.433 248.744 500.185 252.312 500.185 252.312" stroke="#C0342B" stroke-width="0.68" stroke-linecap="round" stroke-linejoin="round"/>
<path d="M460.986 251.715C468.036 253.74 478.874 253.856 485.079 251.715" stroke="#C0342B" stroke-width="0.68" stroke-linecap="round" stroke-linejoin="round"/>
<path d="M613.479 380.394C606.196 389.644 586.4 391.421 570.29 378.559C565.797 374.93 561.95 370.566 558.914 365.653C557.137 362.827 554.85 358.545 552.301 353.505C551.179 351.262 549.985 348.873 548.776 346.396C542.002 332.529 534.209 315.72 529.286 306.106C526.816 301.249 524.966 296.101 523.78 290.782C523.285 288.67 522.891 286.529 522.585 284.373C518.871 258.489 528.164 231.308 553.262 242.306H553.335C558.331 244.505 563.648 249.268 568.994 255.517C581.958 270.725 594.98 294.846 603.283 312.981C605.176 317.104 606.808 320.92 608.148 324.256C617.849 348.377 622.554 368.77 613.479 380.394Z" fill="#E85C53"/>
<path d="M575.389 339.492C574.821 348.538 564.202 352.267 552.302 353.505C551.18 351.262 549.986 348.873 548.777 346.396C542.003 332.529 534.21 315.72 529.287 306.106C526.817 301.249 524.967 296.101 523.781 290.782C533.977 291.001 545.091 294.73 546.111 312.224C546.81 324.168 576.671 318.793 575.389 339.492Z" fill="#E85C53"/>
<path d="M568.994 255.561C568.12 255.561 567.246 255.707 566.386 255.823C552.49 257.659 537.021 266.864 522.585 284.373C518.871 258.489 528.164 231.308 553.262 242.306H553.335C558.331 244.549 563.648 249.312 568.994 255.561Z" fill="#E85C53"/>
<path d="M558.914 365.653C557.137 362.827 554.85 358.545 552.301 353.505C551.179 351.262 549.985 348.873 548.776 346.396C542.002 332.529 534.209 315.72 529.286 306.106C526.816 301.249 524.966 296.101 523.78 290.782C523.285 288.67 522.891 286.529 522.585 284.373" fill="#E85C53"/>
<path d="M558.914 365.653C557.137 362.827 554.85 358.545 552.301 353.505C551.179 351.262 549.985 348.873 548.776 346.396C542.002 332.529 534.209 315.72 529.286 306.106C526.816 301.249 524.966 296.101 523.78 290.782C523.285 288.67 522.891 286.529 522.585 284.373" stroke="#F2665D" stroke-width="0.68" stroke-linecap="round" stroke-linejoin="round"/>
<path d="M613.479 380.394C606.196 389.644 586.4 391.421 570.29 378.559C574.261 377.284 578.47 376.93 582.598 377.524C599 379.913 615.183 373.155 602.569 354.058C592.372 338.574 599.655 319.099 603.283 313.025C605.176 317.147 606.808 320.964 608.148 324.299C617.849 348.377 622.554 368.77 613.479 380.394Z" fill="#E85C53"/>
<path d="M508.137 135.607C505.064 137.792 503.17 138.142 503.243 141.434C503.316 144.726 501.888 145.687 500.446 146.226C499.004 146.765 500.621 149.212 500.169 151.572C499.718 153.932 493.658 156.175 493.658 156.175L453.412 137.239C450.061 133.16 451.518 130.903 452.596 128.718C452.701 128.512 452.755 128.285 452.755 128.055C452.755 127.824 452.701 127.597 452.596 127.392C452.028 125.935 449.581 124.552 450.207 122.847C451.008 120.677 453.12 120.313 455.713 120.225C458.306 120.138 457.738 112.942 456.543 110.99C455.349 109.038 456.267 104.304 460.331 104.581C464.395 104.858 465.939 104.042 466.303 102.134C466.548 101.47 466.927 100.863 467.417 100.352C467.907 99.8404 468.497 99.4355 469.15 99.1622C469.803 98.8889 470.506 98.753 471.214 98.7631C471.922 98.7732 472.62 98.929 473.266 99.2208C476.426 100.867 479.092 99.046 481.044 97.2398C481.155 97.1266 481.277 97.0241 481.408 96.9339C483.491 95.317 487.861 94.4285 489.638 97.2398C491.415 100.051 493.804 101.406 497.606 101.61C501.408 101.814 502.486 105.047 501.67 108.208C500.854 111.369 502.034 112.462 504.481 113.918C505.763 114.93 506.708 116.308 507.189 117.869C507.67 119.429 507.666 121.1 507.176 122.658C506.684 123.579 506.507 124.636 506.673 125.668C506.838 126.699 507.337 127.647 508.094 128.368C509.303 129.737 511.211 133.437 508.137 135.607Z" fill="#473526"/>
<path d="M492.8 187.347C489.621 188.71 486.175 189.333 482.72 189.168C468.897 188.527 435.147 201.025 435.147 201.025C429.48 201.724 426.028 203.676 428.592 206.502C431.155 209.328 433.559 217.485 427.004 218.155C425.715 218.276 424.418 218.276 423.129 218.155C419.284 217.82 417.58 216.203 418.06 214.688C418.672 212.751 422.838 213.231 423.625 212.386C424.411 211.542 424.601 209.823 422.037 207.419C419.473 205.016 417.667 201.316 420.274 197.543C422.882 193.771 428.155 190.333 424.965 187.667C421.775 185.002 419.138 182.613 420.595 179.423C422.051 176.233 429.451 171.717 425.999 167.77C422.547 163.822 419.444 158.826 426.174 152.708C432.903 146.591 439.72 147.756 438.744 142.512C437.768 137.268 438.584 132.228 445.838 133.466C453.092 134.704 454.17 134.18 457.36 132.403C460.55 130.626 464.789 131.602 468.882 135.156C472.975 138.71 476.85 134.704 481.802 135.68C486.755 136.656 481.802 141.434 488.095 142.512C494.388 143.59 496.514 143.837 497.228 149.795C497.942 155.753 502.108 155.884 502.967 157.777C504.759 161.579 501.918 164.245 501.117 166.517C500.316 168.79 502.079 170.13 503.477 172.46C505.706 176.408 500.957 183.88 492.8 187.347Z" fill="#604730"/>
<path d="M494.955 176.699C494.493 180.299 493.757 183.859 492.755 187.347C489.577 188.71 486.13 189.333 482.675 189.168C468.852 188.527 435.102 201.025 435.102 201.025C429.436 201.724 425.983 203.676 428.547 206.502C431.111 209.328 433.514 217.485 426.959 218.155C425.671 218.276 424.373 218.276 423.085 218.155C427.993 217.354 429.304 213.858 426.77 209.226C423.289 202.86 424.541 199.029 428.037 195.431C431.533 191.833 425.809 183.152 428.037 178.607C430.266 174.063 434.053 172.46 432.538 165.599C431.023 158.739 431.766 155.403 437.229 151.63C442.691 147.858 447.206 147.086 450.105 142.541C453.004 137.996 460.564 135.112 463.142 140.56C465.72 146.008 466.55 149.693 473.79 147.479C481.029 145.265 485.88 147.989 483.302 154.209C480.723 160.428 481.947 166.328 486.492 167.085C491.036 167.843 495.858 168.076 494.955 176.699Z" fill="#473526"/>
<path d="M489.801 197.514C462.606 217.295 450.88 223.807 437.872 212.867C431.812 207.784 430.764 197.398 431.958 186.794C432.403 183.011 433.084 179.26 433.997 175.563C435.358 169.549 437.446 163.723 440.217 158.214C446.044 147.668 459.474 147.144 460.829 147.668C462.183 148.193 462.606 148.979 461.295 152.038C459.984 155.097 461.426 157.384 465.198 157.501C468.971 157.617 473.283 160.239 472.875 164.012C472.628 165.849 472.929 167.717 473.74 169.383C474.551 171.05 475.836 172.439 477.434 173.378C480.945 175.592 480.347 178.986 480.814 181.054C481.28 183.123 485.635 185.424 486.815 182.613C487.995 179.802 494.739 173.64 500.216 179.248C505.693 184.856 500.857 197.908 489.801 197.514Z" fill="#B25E47"/>
<path d="M457.2 183.37C458.511 186.094 463.23 186.531 467.717 184.361C472.203 182.19 474.811 178.228 473.543 175.504C472.276 172.781 467.527 172.329 463.026 174.514C458.525 176.699 455.889 180.646 457.2 183.37Z" fill="#A0503D"/>
<path d="M438.859 185.744C437.621 187.478 434.883 187.798 431.955 186.793C432.4 183.011 433.081 179.26 433.994 175.562C434.241 175.704 434.479 175.86 434.708 176.029C438.772 178.942 440.622 183.297 438.859 185.744Z" fill="#A0503D"/>
<path d="M438.338 172.591C438.335 172.961 438.442 173.323 438.645 173.631C438.848 173.94 439.138 174.181 439.478 174.324C439.819 174.468 440.194 174.507 440.557 174.436C440.919 174.366 441.253 174.19 441.515 173.93C441.777 173.669 441.956 173.337 442.03 172.975C442.103 172.613 442.067 172.237 441.926 171.896C441.785 171.554 441.546 171.262 441.239 171.057C440.932 170.851 440.571 170.741 440.202 170.741C439.71 170.741 439.238 170.936 438.889 171.282C438.54 171.629 438.341 172.099 438.338 172.591Z" fill="#683F1D"/>
<path d="M449.699 173.582C449.699 173.951 449.808 174.311 450.013 174.618C450.218 174.924 450.509 175.163 450.85 175.304C451.191 175.445 451.566 175.482 451.927 175.41C452.289 175.339 452.621 175.161 452.882 174.9C453.143 174.639 453.32 174.307 453.392 173.946C453.464 173.584 453.427 173.209 453.286 172.868C453.145 172.528 452.906 172.236 452.599 172.032C452.293 171.827 451.932 171.717 451.564 171.717C451.069 171.717 450.595 171.914 450.245 172.263C449.896 172.613 449.699 173.087 449.699 173.582Z" fill="#683F1D"/>
<path d="M488.796 189.182C489.16 185.177 493.734 179.656 498.672 183.735" stroke="#934735" stroke-width="0.68" stroke-linecap="round" stroke-linejoin="round"/>
<path d="M488.969 188.192C492.392 182.365 499.282 190.362 491.256 191.965" stroke="#934735" stroke-width="0.68" stroke-linecap="round" stroke-linejoin="round"/>
<path d="M443.653 184.521C441.614 183.574 440.813 181.725 440.988 181.273C441.163 180.821 447.543 176.117 446.319 168.877" stroke="#934735" stroke-width="0.68" stroke-linecap="round" stroke-linejoin="round"/>
<path d="M451.565 159.831C450.983 163.604 460.145 167.289 461.558 164.915C462.767 162.876 452.41 154.34 451.565 159.831Z" fill="#604730"/>
<path d="M436.182 162.322C436.269 163.4 446.102 163.181 445.97 159.409C445.839 155.636 435.934 159.147 436.182 162.322Z" fill="#604730"/>
<path d="M444.614 188.337C448.023 187.441 451.35 186.262 454.563 184.812C454.563 184.812 455.583 191.105 451.562 192.256C450.849 192.461 450.102 192.522 449.364 192.436C448.627 192.35 447.914 192.117 447.267 191.753C446.62 191.388 446.053 190.898 445.597 190.312C445.142 189.725 444.808 189.054 444.614 188.337Z" fill="white" stroke="#934735" stroke-width="0.68" stroke-linecap="round" stroke-linejoin="round"/>
<path d="M496.414 120.327C494.957 125.018 489.436 120.167 488.999 126.868C488.562 133.568 475.191 131.689 471.097 125.178C467.747 119.818 458.25 121.828 452.671 127.494C452.103 126.037 449.656 124.654 450.282 122.949C451.083 120.779 453.195 120.415 455.788 120.327C458.381 120.24 457.813 113.044 456.619 111.092C455.424 109.14 456.342 104.406 460.406 104.683C464.47 104.96 466.014 104.144 466.378 102.236C466.623 101.572 467.002 100.965 467.492 100.454C467.982 99.9424 468.572 99.5375 469.225 99.2642C469.879 98.9908 470.581 98.855 471.289 98.8651C471.997 98.8752 472.695 99.031 473.341 99.3228C476.502 100.969 479.167 99.148 481.119 97.3418C481.231 97.2286 481.352 97.1261 481.483 97.0359C483.042 101.406 484.178 107.494 490.223 108.033C498.657 108.805 497.87 115.622 496.414 120.327Z" fill="#604730"/>
<path d="M322.274 249.181C323.032 244.374 336.535 240.79 344.386 239.29L347.387 258.692C347.387 258.692 325.799 255.604 322.274 249.181Z" fill="#C0342B"/>
<path d="M334.831 259.493C333.273 238.489 333.273 220.82 332.836 214.061C332.399 207.302 332.734 200.238 340.614 196.989C340.614 196.989 340.614 190.799 349.602 189.706C349.602 189.706 348.465 184.157 355.982 184.302C355.966 183.783 356.071 183.266 356.289 182.794C356.506 182.322 356.83 181.906 357.235 181.58C357.64 181.254 358.115 181.027 358.623 180.915C359.131 180.803 359.658 180.811 360.162 180.937C365.086 181.797 366.673 184.812 366.673 184.812C373.199 183.355 376.87 190.187 376.52 195.766C376.171 201.345 375.777 207.419 373.082 213.042C370.388 218.664 366.965 227.972 366.965 227.972L367.183 239.771C367.183 239.771 362.172 277.716 334.831 259.493Z" fill="#B25E47"/>
<path d="M332.835 214.061C332.383 207.375 332.733 200.238 340.613 196.989C340.613 196.989 340.613 190.799 349.6 189.706C349.6 189.706 348.464 184.157 355.98 184.302C355.965 183.783 356.07 183.266 356.288 182.794C356.505 182.322 356.829 181.906 357.234 181.58C357.639 181.254 358.114 181.027 358.622 180.915C359.13 180.803 359.657 180.811 360.161 180.937C365.084 181.797 366.672 184.812 366.672 184.812C373.198 183.355 376.869 190.187 376.519 195.766" stroke="#934735" stroke-width="0.68" stroke-linecap="round" stroke-linejoin="round"/>
<path d="M366.671 184.812C359.956 188.119 355.018 194.324 357.043 197.368C359.068 200.413 366.686 196.596 367.72 195.62" stroke="#934735" stroke-width="0.68" stroke-linecap="round" stroke-linejoin="round"/>
<path d="M355.413 184.317C357.948 184.652 362.944 187.463 362.944 187.463" stroke="#934735" stroke-width="0.68" stroke-linecap="round" stroke-linejoin="round"/>
<path d="M349.601 189.706C352.545 189.827 355.43 190.571 358.064 191.891" stroke="#934735" stroke-width="0.68" stroke-linecap="round" stroke-linejoin="round"/>
<path d="M356.913 206.006C359.156 204.302 361.094 201.301 360.511 198.519" stroke="#934735" stroke-width="0.68" stroke-linecap="round" stroke-linejoin="round"/>
<path d="M340.556 197.048C345.917 194.848 351.364 192.357 352.981 196.014C354.598 199.67 355.487 210.929 352.981 212.459C350.476 213.988 346.281 212.721 345.567 209.779C344.853 206.836 344.314 202.801 344.314 202.801" stroke="#934735" stroke-width="0.68" stroke-linecap="round" stroke-linejoin="round"/>
<path d="M350.563 213.1C352.82 215.882 352.019 225.729 349.601 229.021" stroke="#934735" stroke-width="0.68" stroke-linecap="round" stroke-linejoin="round"/>
<path d="M368.229 383.03C363.859 391.319 357.596 395.834 349.205 393.023C333.401 387.662 327.108 372.499 324.807 357.685C322.389 342.23 324.282 327.096 324.21 323.949C324.049 317.671 322.331 249.151 322.331 249.151C325.069 250.244 329.22 250.273 334.246 249.326C338.074 248.567 341.831 247.485 345.476 246.093C353.116 243.165 360.385 239.352 367.137 234.731L367.428 234.527C367.428 234.527 368.797 251.511 370.647 271.03C372.206 287.752 374.128 306.324 375.847 317.642C378.557 336.083 376.969 366.833 368.229 383.03Z" fill="#E85C53"/>
<path d="M368.232 383.03C363.862 391.319 357.598 395.834 349.208 393.023C333.404 387.662 327.111 372.499 324.81 357.685C327.624 362.47 330.945 366.938 334.715 371.013C346.382 383.555 358.574 386.249 368.232 383.03Z" fill="#C0342B"/>
<path d="M367.387 234.571C367.387 234.571 372.107 293.098 375.807 317.73C377.823 333.395 377.332 349.282 374.35 364.793" stroke="#C0342B" stroke-width="0.68" stroke-linecap="round" stroke-linejoin="round"/>
<path d="M534.49 304.987L478.293 281.514C473.861 279.663 468.768 281.755 466.917 286.187L433.547 366.08C431.695 370.511 433.787 375.604 438.219 377.455L494.416 400.928C498.847 402.779 503.94 400.687 505.791 396.256L539.162 316.363C541.013 311.931 538.921 306.838 534.49 304.987Z" fill="#EDEDED"/>
<path d="M528.166 302.333L478.287 281.499C473.855 279.648 468.762 281.74 466.911 286.172L433.54 366.065C431.689 370.496 433.781 375.589 438.213 377.44L488.092 398.275C492.524 400.126 497.617 398.034 499.468 393.602L532.839 313.709C534.69 309.278 532.598 304.185 528.166 302.333Z" fill="#F9F9F9" stroke="#DDDDDD" stroke-width="0.9" stroke-linecap="round" stroke-linejoin="round"/>
<path d="M481.599 294.802C481.599 295.551 481.377 296.284 480.961 296.906C480.545 297.529 479.953 298.015 479.261 298.301C478.569 298.588 477.808 298.663 477.073 298.517C476.339 298.371 475.664 298.01 475.134 297.48C474.604 296.951 474.244 296.276 474.098 295.541C473.952 294.807 474.027 294.045 474.313 293.353C474.6 292.661 475.085 292.07 475.708 291.653C476.331 291.237 477.063 291.015 477.812 291.015C478.31 291.013 478.803 291.11 479.264 291.3C479.724 291.489 480.142 291.768 480.494 292.12C480.846 292.472 481.125 292.89 481.315 293.351C481.505 293.811 481.601 294.305 481.599 294.802Z" fill="#EDEDED"/>
<path d="M487.845 298.546C487.847 298.921 487.738 299.29 487.532 299.603C487.325 299.917 487.029 300.162 486.682 300.307C486.336 300.452 485.954 300.491 485.585 300.418C485.216 300.346 484.878 300.165 484.612 299.899C484.346 299.634 484.166 299.295 484.093 298.926C484.02 298.557 484.059 298.176 484.204 297.829C484.349 297.482 484.594 297.187 484.908 296.98C485.222 296.773 485.59 296.664 485.965 296.667C486.463 296.67 486.938 296.87 487.29 297.221C487.642 297.573 487.841 298.049 487.845 298.546Z" fill="#EDEDED"/>
<path d="M485.078 361.37C481.363 360.074 479.441 352.893 478.945 346.702L493.512 348.421C493.512 348.421 493.614 362.303 485.078 361.37Z" fill="#C0342B"/>
<path d="M489.972 357.714C485.839 354.764 481.561 352.022 477.154 349.499C475.493 348.596 466.069 347.532 459.514 343.92C455.098 341.424 450.841 338.656 446.769 335.632L444.176 340.453C444.176 340.453 439.078 334.947 438.349 329.98C437.621 325.013 439.631 324.853 440.826 323.789C442.02 322.726 441.277 321.153 441.204 318.589C441.132 316.026 443.316 315.501 444.001 314.598C444.686 313.695 444.074 311.35 443.928 308.189C443.783 305.028 447.541 304.868 448.138 303.062C448.735 301.255 449.274 295.443 454.401 296.958C459.529 298.473 481.844 315.05 483.301 315.807C485.47 316.583 487.689 317.211 489.943 317.686C489.943 317.686 508.209 346.251 489.972 357.714Z" fill="#B25E47"/>
<path d="M446.769 335.632L444.176 340.453C444.176 340.453 439.078 334.947 438.349 329.98C437.621 325.013 439.631 324.853 440.826 323.789C442.02 322.726 441.277 321.153 441.204 318.589C441.132 316.026 443.316 315.501 444.001 314.598C444.686 313.695 444.074 311.35 443.928 308.189C443.783 305.028 447.541 304.868 448.138 303.062C448.735 301.255 449.274 295.443 454.401 296.958" stroke="#934735" stroke-width="0.68" stroke-linecap="round" stroke-linejoin="round"/>
<path d="M446.77 335.631C444.22 333.49 443.696 333.141 443.696 333.141" stroke="#934735" stroke-width="0.68" stroke-linecap="round" stroke-linejoin="round"/>
<path d="M616.337 376.548C611.661 390.911 594.226 403.642 554.474 388.609L552.304 387.765C510.979 371.377 485.066 361.356 485.066 361.356C488.637 346.245 488.637 330.51 485.066 315.399C508.794 322.041 571.546 334.918 593.832 341.458C595.289 341.895 596.746 342.347 598.042 342.915C616.745 349.819 620.853 362.638 616.337 376.548Z" fill="#E85C53"/>
<path d="M552.302 387.764C510.977 371.377 485.078 361.37 485.078 361.37" stroke="#C0342B" stroke-width="0.68" stroke-linecap="round" stroke-linejoin="round"/>
<path d="M485.078 315.399C506.607 321.43 560.298 332.587 586.693 339.492" stroke="#C0342B" stroke-width="0.68" stroke-linecap="round" stroke-linejoin="round"/>
<path d="M616.336 376.549C611.66 390.911 594.224 403.642 554.473 388.61C554.473 388.61 566.126 375.136 582.6 377.525C599.075 379.913 615.185 373.155 602.57 354.058C600.336 350.66 598.796 346.853 598.04 342.857C616.744 349.82 620.851 362.638 616.336 376.549Z" fill="#C0342B"/>
<path d="M764.915 250.928C763.379 253.391 761.142 255.339 758.491 256.522C740.007 265.262 698.216 248.627 698.216 248.117C698.216 247.607 690.146 179.102 701.683 154.47C703.853 149.853 706.708 146.794 710.422 146.051C729.519 145.468 745.906 151.95 748.703 165.73C751.499 179.51 743.182 195.387 745.615 205.19C748.047 214.993 757.938 215.197 762.089 217.295C769.605 221.067 776.641 231.453 764.915 250.928Z" fill="#DD6819"/>
<path d="M758.491 256.522C740.007 265.262 698.216 248.627 698.216 248.117C698.216 247.607 690.146 179.102 701.683 154.47C732.913 155.607 738.098 167.128 735.753 183.093C733.262 200.063 721.901 223.325 746.634 240.076C754.092 245.146 757.442 250.914 758.491 256.522Z" fill="#CC5E0D"/>
<path d="M718.872 187.914C723.431 193.027 724.101 199.466 722.222 206.72C720.343 213.974 717.43 224.578 721.042 235.051" stroke="#FF79A0" stroke-width="0.68" stroke-linecap="round" stroke-linejoin="round"/>
<path d="M739.818 181.462C739.585 191.177 736.657 197.863 735.826 207.011C734.996 216.159 740.648 221.432 747.8 224.243C750.767 225.48 753.124 227.842 754.355 230.811C755.586 233.781 755.591 237.117 754.369 240.091" stroke="#FF79A0" stroke-width="0.68" stroke-linecap="round" stroke-linejoin="round"/>
<path d="M734.791 238.955C727.915 230.973 726.575 225.131 730.683 224.52C734.791 223.908 742.875 227.433 742.059 230.973C741.244 234.512 736.014 233.012 736.233 231.278" stroke="#FF79A0" stroke-width="0.68" stroke-linecap="round" stroke-linejoin="round"/>
<path d="M702.613 285.669C683.094 295.866 668.892 286.121 667.057 275.313C665.863 268.234 666.562 251.919 666.97 234.964C667.173 226.093 667.319 217.018 667.057 209.036C667.057 207.783 667.057 206.574 667.057 205.38C667.057 154.922 705.599 166.619 708.731 186.152C710.712 198.548 713.756 223.238 715.242 236.261C716.728 249.283 722.19 275.473 702.613 285.669Z" fill="#FEBD9D"/>
<path d="M666.969 234.964C667.173 226.093 667.319 217.018 667.057 209.036C667.057 207.783 667.057 206.574 667.057 205.38C676.641 204.914 691.819 204.447 691.819 204.447C694.616 224.126 683.4 236.828 666.969 234.964Z" fill="#F4A789"/>
<path d="M597.981 459.416C599.743 462.111 612.547 452.133 616.218 446.307L603.21 428.361C603.21 428.361 592.926 451.594 597.981 459.416Z" fill="#A7CAF0"/>
<path d="M629.577 411.274C645.6 435.731 653.029 443.451 654.18 453.633C655.33 463.815 651.063 489.087 639.745 493.355C628.427 497.623 602.309 479.721 601.319 475.628C600.328 471.535 612.724 473.327 618.521 476.109C618.521 476.109 607.451 461.251 607.451 444.602C607.451 440.334 592.127 431.958 592.127 431.958C592.127 431.958 604.815 393.868 629.577 411.274Z" fill="#FEBD9D"/>
<path d="M822.595 595.32C772.968 577.665 711.891 560.608 647.333 546.333V517.404C647.333 509.582 648.236 496.356 649.402 482.037C650.349 470.21 651.47 457.639 652.315 446.787C653.087 437.668 653.684 429.744 653.946 424.486L673.625 424.282L710.347 423.932L785.32 423.19L797.483 423.073C798.867 457.61 810.971 498.585 819.492 529.684C825.61 551.854 824.022 580.433 822.595 595.32Z" fill="#683F1D"/>
<path d="M780.454 480.727C775.516 496.531 780.774 512.248 790.33 517.404" stroke="#91613D" stroke-width="0.68" stroke-linecap="round" stroke-linejoin="round"/>
<path d="M597.983 353.315L606.854 368.814L633.248 414.931" stroke="#83ADDF" stroke-width="0.68" stroke-linecap="round" stroke-linejoin="round"/>
<path d="M782.495 426.467C778.707 427.239 757.586 427.924 733.537 428.215C697.121 428.594 654.005 427.851 654.005 424.486C654.005 419.213 656.307 414.29 649.723 402.739C643.139 391.187 632.243 382.171 631.267 361.152C630.291 340.133 635.215 316.739 635.215 316.739L624.887 326.935L597.983 353.315L606.854 368.814L633.248 414.931C633.248 414.931 597.663 428.769 597.983 459.416C597.983 459.416 549.23 398.791 534.736 378.034C520.243 357.277 536.703 333.549 560.096 309.165C571.749 296.987 584.553 280.586 597.342 266.777C610.132 252.968 623.023 241.781 634.894 240.077C641.609 239.115 650.917 238.285 660.939 237.615C662.891 237.469 664.857 237.338 666.853 237.222C666.314 257.804 672.257 261.606 672.257 261.606C675.17 263.324 675.476 262.523 675.738 265.976C676 269.428 677.603 279.216 680.414 279.216C684.303 279.216 686.809 272.836 690.1 263.601C692.271 252.56 705.905 248.248 710.304 242.247C711.829 240.088 712.894 237.639 713.436 235.051H715.053C717.602 235.678 720.675 236.391 724.04 237.076C732.78 238.853 743.515 240.484 752.226 240.077C763.777 239.552 797.6 240.237 807.665 266.937C807.665 266.937 807.665 267.01 807.665 267.053C808.088 268.19 808.466 269.384 808.816 270.622C809.078 271.598 809.311 272.676 809.515 273.841C815.487 308.742 791.744 424.544 782.495 426.467Z" fill="#C3DCF8"/>
<path d="M749.866 335.18C730.056 342.128 724.754 369.484 729.241 380.496C733.727 391.508 718.418 396.897 703.808 396.897C686.984 396.897 666.984 414.595 675.549 439.912L761.49 400.583L749.866 335.18Z" fill="#A7CAF0"/>
<path d="M810.199 274.104C809.995 274.002 809.762 273.929 809.558 273.841C791.583 266.733 770.535 271.219 756.843 282.581C753.367 285.42 750.359 288.787 747.928 292.559C731.541 318.327 678.84 332.398 661.535 298.619C647.522 271.234 626.576 262.654 597.342 266.791C610.16 252.982 623.022 241.796 634.894 240.091C641.609 239.13 650.916 238.3 660.938 237.63C662.89 237.484 664.856 237.353 666.852 237.236C666.313 257.818 672.256 261.62 672.256 261.62C675.169 263.339 675.475 262.538 675.737 265.99C676 269.442 677.602 279.231 680.413 279.231C684.302 279.231 686.808 272.851 690.1 263.616C692.27 252.575 705.904 248.263 710.303 242.262C711.828 240.102 712.894 237.653 713.435 235.066H715.052C717.601 235.692 720.674 236.406 724.039 237.091C732.779 238.868 743.514 240.499 752.225 240.091C763.776 239.567 797.599 240.251 807.664 266.952C807.664 266.952 807.664 267.024 807.664 267.068C808.667 269.353 809.514 271.704 810.199 274.104Z" fill="#D0E5F7"/>
<path d="M685.191 288.932C686.873 288.932 688.236 287.569 688.236 285.888C688.236 284.206 686.873 282.843 685.191 282.843C683.51 282.843 682.147 284.206 682.147 285.888C682.147 287.569 683.51 288.932 685.191 288.932Z" fill="#83ADDF"/>
<path d="M678.739 284.46C679.642 292.647 677.108 307.096 675.17 321.706C673.233 336.316 668.616 356.418 675.17 377.058C681.725 397.699 683.196 404.035 683.371 406.555C683.663 411.027 680.254 416.14 688.732 419.665" stroke="#83ADDF" stroke-width="0.68" stroke-linecap="round" stroke-linejoin="round"/>
<path d="M672.256 261.606C664.157 259.683 658.389 269.559 655.301 277.905C654.995 253.784 657.908 242.699 660.938 237.615C663.968 232.531 667.012 233.493 667.012 233.493C666.924 234.804 666.881 236.042 666.852 237.222C666.313 257.76 672.256 261.606 672.256 261.606Z" fill="#83ADDF"/>
<path d="M724.127 246.574C721.972 260.31 713.363 279.246 713.363 279.246C713.363 279.246 706.517 271.497 701.71 265.641C696.903 259.785 694.121 260.747 690.057 263.631C692.227 252.589 705.861 248.278 710.26 242.276C711.785 240.117 712.851 237.668 713.392 235.081C713.964 232.638 714.218 230.131 714.15 227.623C716.561 228.002 718.798 229.112 720.559 230.802C722.319 232.493 723.519 234.682 723.996 237.076C724.644 240.205 724.688 243.428 724.127 246.574Z" fill="#83ADDF"/>
<path d="M591.442 438.936C593.044 430.284 604.071 415.164 621.565 407.211" stroke="#83ADDF" stroke-width="0.68" stroke-linecap="round" stroke-linejoin="round"/>
<path d="M575.389 333.753C577.958 333.902 580.444 334.721 582.599 336.127C586.969 338.676 592.315 343.731 597.982 353.315" stroke="#83ADDF" stroke-width="0.68" stroke-linecap="round" stroke-linejoin="round"/>
<path d="M635.213 316.739L637.821 305.582" stroke="#83ADDF" stroke-width="0.68" stroke-linecap="round" stroke-linejoin="round"/>
<path d="M624.887 326.892L597.983 353.315C592.317 343.731 586.913 338.676 582.601 336.127C589.578 332.995 593.016 335.85 596.395 338.341C604.756 344.546 612.637 319.987 624.887 326.892Z" fill="#A7CAF0"/>
<path d="M811.451 366.571C808.319 392.615 803.352 417.684 798.224 434.901C788.334 468.054 763.498 469.948 747.461 459.373C738.167 453.226 731.817 442.898 733.069 432.017C733.186 430.939 733.346 429.672 733.535 428.215C736.449 405.9 746.194 340.41 752.064 303.178C753.099 296.176 754.696 289.269 756.841 282.523C764.474 259.217 777.234 252.007 792.937 253.624C799.433 254.294 804.24 259.13 807.663 266.893C807.663 266.893 807.663 266.966 807.663 267.01C808.652 269.301 809.484 271.656 810.154 274.06C816.476 295.968 815.573 332.049 811.451 366.571Z" fill="#C3DCF8"/>
<path d="M811.45 366.571C808.319 392.615 803.351 417.684 798.224 434.901C788.334 468.054 763.498 469.948 747.46 459.373C750.466 456.477 754.228 454.488 758.312 453.633C776.418 450.225 787.212 436.343 784.532 407.211C782.434 385.099 801.909 371.742 811.45 366.571Z" fill="#A7CAF0"/>
<path d="M810.197 274.104C809.993 274.002 809.76 273.929 809.556 273.841C791.582 266.733 770.533 271.219 756.841 282.581C764.474 259.275 777.234 252.065 792.936 253.682C799.433 254.352 804.24 259.188 807.663 266.952C807.663 266.952 807.663 267.024 807.663 267.068C808.666 269.353 809.513 271.704 810.197 274.104Z" fill="#D0E5F7"/>
<path d="M737.905 396.897C742.129 367.765 748.101 328.8 752.063 303.178C753.098 296.176 754.696 289.268 756.841 282.523C758.441 277.41 760.672 272.517 763.483 267.957" stroke="#83ADDF" stroke-width="0.68" stroke-linecap="round" stroke-linejoin="round"/>
<path d="M614.576 517.39C606.914 518.847 599.15 507.412 596.586 500.377C594.023 493.341 614.488 490.18 614.488 490.18C614.488 490.18 621.145 511.928 614.576 517.39Z" fill="#A7CAF0"/>
<path d="M595.623 466.35C580.649 471.346 545.544 488.796 543.665 490.253C541.786 491.71 536.193 504.47 535.989 506.393C535.785 508.315 533.498 528.242 537.227 529.524C540.956 530.806 542.835 522.532 543.665 517.405C544.456 513.594 545.714 509.896 547.409 506.393C547.409 506.393 545.136 514.448 548.457 517.405C550.38 519.124 554.677 517.405 554.677 517.405C554.677 517.405 555.726 522.663 562.587 520.172C562.587 520.172 562.179 525.751 566.694 526.844C571.21 527.936 575.434 522.896 577.226 519.925C577.867 518.92 576.25 515.977 574.152 515.977C574.152 515.977 576.017 514.768 581.625 514.768C587.233 514.768 593.919 515.089 598.201 508.607C602.484 502.125 607.32 499.037 611.311 498.002L595.623 466.35Z" fill="#FEBD9D"/>
<path d="M535.989 506.392C535.771 508.33 533.498 528.242 537.227 529.524C540.956 530.805 542.835 522.532 543.666 517.404C544.457 513.594 545.714 509.896 547.409 506.392C547.409 506.392 545.137 514.447 548.458 517.404C550.381 519.123 554.678 517.404 554.678 517.404C554.678 517.404 555.727 522.663 562.587 520.172C562.587 520.172 562.179 525.751 566.695 526.843C571.211 527.936 575.435 522.896 577.226 519.924C577.867 518.919 576.25 515.977 574.153 515.977" stroke="#EF8A66" stroke-width="0.68" stroke-linecap="round" stroke-linejoin="round"/>
<path d="M574.983 516.123C573.843 515.956 572.681 516.036 571.574 516.356" stroke="#EF8A66" stroke-width="0.68" stroke-linecap="round" stroke-linejoin="round"/>
<path d="M572.639 512.67C571.517 515.584 570.119 520.041 570.672 521.323" stroke="#EF8A66" stroke-width="0.68" stroke-linecap="round" stroke-linejoin="round"/>
<path d="M562.603 521.265C562.502 515.336 564.012 509.491 566.973 504.353" stroke="#EF8A66" stroke-width="0.68" stroke-linecap="round" stroke-linejoin="round"/>
<path d="M554.679 517.404C553.586 513.035 556.951 501.92 559.646 498.687" stroke="#EF8A66" stroke-width="0.68" stroke-linecap="round" stroke-linejoin="round"/>
<path d="M547.395 506.392C547.818 503.479 548.415 495.511 552.77 491.826" stroke="#EF8A66" stroke-width="0.68" stroke-linecap="round" stroke-linejoin="round"/>
<path d="M776.189 463.145C769.707 466.554 754.165 472.409 735.141 479.052C686.388 496.05 614.765 518.177 614.576 517.39C614.314 516.298 608.021 487.602 586.434 468.476C586.434 468.476 686.592 420.612 718.681 405.623C737.952 396.621 767.435 381.326 783.312 395.878C783.894 396.402 784.448 396.956 784.972 397.524C802.088 415.543 798.548 451.361 776.189 463.145Z" fill="#C3DCF8"/>
<path d="M776.188 463.145C769.706 466.553 754.164 472.409 735.14 479.051C738.505 470.312 745.832 455.978 758.315 453.633C776.421 450.225 787.215 436.343 784.535 407.21C784.225 403.975 784.387 400.712 785.015 397.524C802.087 415.542 798.547 451.361 776.188 463.145Z" fill="#A7CAF0"/>
<path d="M586.434 468.476C586.434 468.476 686.592 420.611 718.681 405.623C727.887 401.326 739.423 395.587 750.727 392.353" stroke="#83ADDF" stroke-width="0.68" stroke-linecap="round" stroke-linejoin="round"/>
<path d="M607.451 465.097C619.555 479.94 629.577 506.393 629.577 506.393" stroke="#83ADDF" stroke-width="0.68" stroke-linecap="round" stroke-linejoin="round"/>
<path d="M716.523 146.211C725.598 150.581 733.099 169.678 717.033 181.462C700.966 193.246 708.293 165.104 708.686 164.565C709.079 164.026 709.589 146.867 716.523 146.211Z" fill="#FED81D"/>
<path d="M717.094 170.494C716.408 171.807 715.467 172.97 714.327 173.917C714.327 173.917 697.051 185.788 686.287 179.452C675.522 173.115 662.34 158.083 662.34 158.083C657.489 154.471 654.838 151.645 653.877 148.484C653.409 146.855 653.324 145.14 653.629 143.473C654.518 137.85 660.49 125.265 679.499 129.926C679.499 129.926 682.834 125.702 689.695 128.251C696.556 130.8 702.528 138.287 702.528 138.287C702.528 138.287 709.214 135.913 716.512 146.212C722.265 154.34 720.328 164.813 717.094 170.494Z" fill="#DD6819"/>
<path d="M717.093 170.493C716.406 171.806 715.465 172.97 714.325 173.916C714.325 173.916 697.049 185.788 686.285 179.452C675.52 173.115 662.338 158.083 662.338 158.083C657.487 154.47 654.836 151.645 653.875 148.484C654.749 139.321 658.973 132.767 667.873 135.505C680.487 139.394 686.576 146.372 699.132 143.007C699.132 143.007 702.308 167.799 717.093 170.493Z" fill="#CC5E0D"/>
<path d="M660.122 140.472C662.395 137.996 667.041 138.098 673.946 145.279" stroke="#FF79A0" stroke-width="0.68" stroke-linecap="round" stroke-linejoin="round"/>
<path d="M675.417 129.154C680.611 130.239 685.519 132.402 689.823 135.505" stroke="#FF79A0" stroke-width="0.68" stroke-linecap="round" stroke-linejoin="round"/>
<path d="M702.542 138.317C703.708 139.76 704.687 141.346 705.455 143.036" stroke="#FF79A0" stroke-width="0.68" stroke-linecap="round" stroke-linejoin="round"/>
<path d="M706.168 191.76C690.83 213.348 671.02 225.117 659.061 215.066C650.233 207.681 650.175 192.984 652.258 181.141C652.86 177.696 653.672 174.291 654.691 170.945C654.778 170.654 654.88 170.377 654.968 170.1C658.711 158.447 664.246 140.968 673.161 144.595C673.161 144.595 680.124 150.829 693.321 148.149C693.321 148.149 686.547 172.912 701.886 175.825C701.886 175.825 708.659 167.085 716.452 171.732C724.245 176.378 724.332 191.571 706.168 191.76Z" fill="#FEBD9D"/>
<path d="M674.298 166.153C674.295 166.522 674.402 166.884 674.605 167.193C674.808 167.501 675.099 167.742 675.439 167.886C675.779 168.029 676.155 168.068 676.517 167.998C676.88 167.928 677.214 167.751 677.476 167.491C677.738 167.231 677.917 166.899 677.99 166.537C678.063 166.175 678.027 165.799 677.887 165.457C677.746 165.116 677.507 164.824 677.2 164.618C676.893 164.413 676.532 164.303 676.163 164.303C675.671 164.303 675.199 164.497 674.849 164.844C674.5 165.19 674.302 165.661 674.298 166.153Z" fill="#683F1D"/>
<path d="M661.539 166.153C661.536 166.522 661.643 166.884 661.846 167.193C662.049 167.501 662.339 167.742 662.68 167.886C663.02 168.029 663.395 168.068 663.758 167.998C664.121 167.928 664.454 167.751 664.716 167.491C664.979 167.231 665.158 166.899 665.231 166.537C665.304 166.175 665.268 165.799 665.127 165.457C664.986 165.116 664.748 164.824 664.441 164.618C664.134 164.413 663.773 164.303 663.403 164.303C662.911 164.303 662.439 164.497 662.09 164.844C661.741 165.19 661.543 165.661 661.539 166.153Z" fill="#683F1D"/>
<path d="M701.799 175.883C700.398 177.461 699.452 179.389 699.061 181.462" stroke="#EF8A66" stroke-width="0.68" stroke-linecap="round" stroke-linejoin="round"/>
<path d="M703.837 182.249C707.071 174.965 714.034 174.528 718.04 177.777" stroke="#EF8A66" stroke-width="0.68" stroke-linecap="round" stroke-linejoin="round"/>
<path d="M705.485 179.452C711.676 175.33 715.303 186.152 707.204 186.152" stroke="#EF8A66" stroke-width="0.68" stroke-linecap="round" stroke-linejoin="round"/>
<path d="M657.705 158.025C658.186 159.569 668.135 158.68 667.902 155.199C667.523 150.523 656.802 155.097 657.705 158.025Z" fill="#DD6819"/>
<path d="M675.362 154.951C675.042 158.083 684.655 160.778 685.558 159.132C686.462 157.486 675.959 149.008 675.362 154.951Z" fill="#DD6819"/>
<path d="M663.039 176.466C662.747 173.553 664.291 170.275 666.389 169.532C668.486 168.789 671.735 166.765 671.006 159.205" stroke="#EF8A66" stroke-width="0.68" stroke-linecap="round" stroke-linejoin="round"/>
<path d="M665.268 182.248C668.997 182.248 674.809 179.422 675.741 178.272C675.741 178.272 676.178 187.23 671.109 187.871C666.841 188.424 665.268 182.248 665.268 182.248Z" fill="white" stroke="#EF8A66" stroke-width="0.68" stroke-linecap="round" stroke-linejoin="round"/>
<path d="M707.435 196.728C710.645 196.728 713.247 194.125 713.247 190.916C713.247 187.706 710.645 185.104 707.435 185.104C704.225 185.104 701.623 187.706 701.623 190.916C701.623 194.125 704.225 196.728 707.435 196.728Z" fill="white"/>
<path d="M694.878 173.392C695.941 176.014 693.523 179.481 689.444 181.141C685.366 182.802 681.214 182.03 680.136 179.408C679.059 176.786 681.491 173.305 685.57 171.644C689.648 169.984 693.8 170.77 694.878 173.392Z" fill="#F4AF90"/>
<path d="M659.658 179.801C658.493 181.811 655.419 182.321 652.229 181.258C652.831 177.813 653.643 174.407 654.662 171.062L655.332 171.426C659.148 173.581 661.085 177.354 659.658 179.801Z" fill="#F4AF90"/>
<path d="M470.484 575.306C446.959 587.483 308.885 623.375 308.885 623.375L296.241 610.862L215.544 531.053C215.544 531.053 292.556 515.584 306.919 517.317C318.921 518.774 426.61 547.484 461.016 564.658C467.745 568.096 472.217 574.417 470.484 575.306Z" stroke="#EDEDED" stroke-width="0.9" stroke-linecap="round" stroke-linejoin="round"/>
<path d="M219.042 543.449C276.389 533.748 298.982 527.426 307.081 529.64C315.179 531.854 424.616 562.91 422.781 563.39C371.405 576.85 279.827 598.277 279.827 598.277L219.042 543.449Z" stroke="#DDDDDD" stroke-width="0.9" stroke-linecap="round" stroke-linejoin="round"/>
<path d="M470.484 575.306C446.959 587.483 308.885 623.375 308.885 623.375L296.242 610.862L461.016 564.745C467.745 568.096 472.217 574.417 470.484 575.306Z" fill="#EDEDED"/>
<path d="M76.3219 398.777L239.042 462.519L317.831 619.631L142.701 542.4L67.3782 402.608L76.3219 398.777Z" fill="#EDEDED"/>
<path d="M67.3782 402.607L230.098 466.349L308.887 623.462L133.771 546.231L67.3782 402.607Z" fill="#F9F9F9" stroke="#DDDDDD" stroke-width="0.9" stroke-linecap="round" stroke-linejoin="round"/>
</svg>
