<svg width="21" height="26" viewBox="0 0 21 26" fill="none" xmlns="http://www.w3.org/2000/svg">
<path d="M12.996 25.5184L8.12809 16.6835C7.95767 16.3797 7.63907 16.187 7.29082 16.187C6.76476 16.187 6.33501 16.6168 6.33501 17.1431V25.0515C6.33501 25.5777 5.90527 26.0076 5.37921 26.0076H0.95581C0.429744 26.0076 0 25.5777 0 25.0515V0.948309C0 0.422071 0.429744 -0.0078125 0.95581 -0.0078125H10.6325C12.6849 -0.0078125 14.4261 0.347954 15.8783 1.0669C17.3231 1.78584 18.4049 2.7642 19.1236 4.01679C19.8423 5.26197 20.198 6.65539 20.198 8.18222C20.198 9.90917 19.7089 11.4582 18.7383 12.8146C17.9455 13.9115 16.8563 14.7565 15.4634 15.3346C14.9299 15.557 14.7076 16.1944 14.9966 16.691L19.583 24.5697C19.9534 25.2071 19.4941 26.0076 18.7605 26.0076H13.8333C13.4851 26.0076 13.1665 25.8149 12.996 25.511V25.5184ZM6.34243 10.7541C6.34243 11.2803 6.77217 11.7102 7.29824 11.7102H10.2694C11.4327 11.7102 12.2996 11.4286 12.8775 10.8579C13.4554 10.2872 13.7518 9.48669 13.7518 8.44904C13.7518 7.41139 13.4628 6.68504 12.8775 6.11433C12.2996 5.54362 11.4253 5.26197 10.2694 5.26197H7.29824C6.77217 5.26197 6.34243 5.69186 6.34243 6.21809V10.7541Z" fill="white"/>
</svg>
