<svg width="24" height="28" viewBox="0 0 24 28" fill="none" xmlns="http://www.w3.org/2000/svg">
<path d="M1.79299 7.15348C2.90286 5.14025 4.4493 3.57852 6.43227 2.45348C8.41525 1.32843 10.672 0.773315 13.1803 0.773315C16.2658 0.773315 18.8999 1.58749 21.0974 3.21584C21.6376 3.61553 22.1333 4.05222 22.5847 4.52592C24.5085 6.53915 23.0656 9.87727 20.2835 9.87727H20.2761C19.3142 9.87727 18.4041 9.44058 17.8122 8.68561C17.3978 8.1601 16.9095 7.73081 16.3472 7.39774C15.4001 6.82781 14.3198 6.54655 13.1063 6.54655C11.1603 6.54655 9.57693 7.2275 8.37086 8.58199C7.16479 9.93648 6.55806 11.7499 6.55806 14.0222C6.55806 16.2944 7.16479 18.1078 8.37086 19.4623C9.57693 20.8168 11.1603 21.4978 13.1063 21.4978C14.3124 21.4978 15.3927 21.2165 16.3472 20.6466C16.9095 20.3061 17.3978 19.8768 17.8122 19.3587C18.4041 18.6037 19.3142 18.167 20.2761 18.167C23.0656 18.167 24.5085 21.52 22.5699 23.5258C22.1259 23.9921 21.6302 24.414 21.0974 24.8063C18.8999 26.4198 16.2658 27.2266 13.1803 27.2266C10.6646 27.2266 8.41525 26.6641 6.43227 25.5464C4.4493 24.4214 2.90286 22.8671 1.79299 20.8612C0.683112 18.8628 0.128174 16.5831 0.128174 14.0148C0.128174 11.4464 0.683112 9.15932 1.79299 7.15348Z" fill="white"/>
</svg>
